<mxfile host="Electron" agent="Mozilla/5.0 (Windows NT 10.0; Win64; x64) AppleWebKit/537.36 (KHTML, like Gecko) draw.io/24.7.8 Chrome/128.0.6613.36 Electron/32.0.1 Safari/537.36" version="24.7.8">
  <diagram name="16_Concatenate_Dic" id="MQVVfc388vjhuoJOa6CC">
    <mxGraphModel dx="1295" dy="758" grid="1" gridSize="10" guides="1" tooltips="1" connect="1" arrows="1" fold="1" page="1" pageScale="1" pageWidth="850" pageHeight="1100" math="0" shadow="0">
      <root>
        <mxCell id="0" />
        <mxCell id="1" parent="0" />
        <mxCell id="EuI7MVh3GMwdLrdnFJbf-2" value="Initialize result as empty dict" style="whiteSpace=wrap;strokeWidth=2;" vertex="1" parent="1">
          <mxGeometry x="767" y="436" width="226" height="33" as="geometry" />
        </mxCell>
        <mxCell id="EuI7MVh3GMwdLrdnFJbf-3" value="Loop through dic1, dic2, dic3" style="whiteSpace=wrap;strokeWidth=2;" vertex="1" parent="1">
          <mxGeometry x="768" y="520" width="225" height="33" as="geometry" />
        </mxCell>
        <mxCell id="EuI7MVh3GMwdLrdnFJbf-4" value="For each dictionary, call result.update" style="whiteSpace=wrap;strokeWidth=2;" vertex="1" parent="1">
          <mxGeometry x="735" y="603" width="290" height="33" as="geometry" />
        </mxCell>
        <mxCell id="EuI7MVh3GMwdLrdnFJbf-5" value="After loop, result contains all key-value pairs" style="whiteSpace=wrap;strokeWidth=2;" vertex="1" parent="1">
          <mxGeometry x="710" y="687" width="340" height="33" as="geometry" />
        </mxCell>
        <mxCell id="EuI7MVh3GMwdLrdnFJbf-6" value="Print result" style="whiteSpace=wrap;strokeWidth=2;" vertex="1" parent="1">
          <mxGeometry x="833" y="770" width="95" height="33" as="geometry" />
        </mxCell>
        <mxCell id="EuI7MVh3GMwdLrdnFJbf-8" value="" style="curved=1;startArrow=none;endArrow=block;exitX=0.5;exitY=1;entryX=0.5;entryY=0.01;rounded=0;exitDx=0;exitDy=0;" edge="1" parent="1" source="EuI7MVh3GMwdLrdnFJbf-14" target="EuI7MVh3GMwdLrdnFJbf-2">
          <mxGeometry relative="1" as="geometry">
            <Array as="points" />
            <mxPoint x="880" y="386" as="sourcePoint" />
          </mxGeometry>
        </mxCell>
        <mxCell id="EuI7MVh3GMwdLrdnFJbf-9" value="" style="curved=1;startArrow=none;endArrow=block;exitX=0.5;exitY=1.02;entryX=0.5;entryY=-0.01;rounded=0;" edge="1" parent="1" source="EuI7MVh3GMwdLrdnFJbf-2" target="EuI7MVh3GMwdLrdnFJbf-3">
          <mxGeometry relative="1" as="geometry">
            <Array as="points" />
          </mxGeometry>
        </mxCell>
        <mxCell id="EuI7MVh3GMwdLrdnFJbf-10" value="" style="curved=1;startArrow=none;endArrow=block;exitX=0.5;exitY=1.01;entryX=0.5;entryY=0.01;rounded=0;" edge="1" parent="1" source="EuI7MVh3GMwdLrdnFJbf-3" target="EuI7MVh3GMwdLrdnFJbf-4">
          <mxGeometry relative="1" as="geometry">
            <Array as="points" />
          </mxGeometry>
        </mxCell>
        <mxCell id="EuI7MVh3GMwdLrdnFJbf-11" value="" style="curved=1;startArrow=none;endArrow=block;exitX=0.5;exitY=1.02;entryX=0.5;entryY=-0.01;rounded=0;" edge="1" parent="1" source="EuI7MVh3GMwdLrdnFJbf-4" target="EuI7MVh3GMwdLrdnFJbf-5">
          <mxGeometry relative="1" as="geometry">
            <Array as="points" />
          </mxGeometry>
        </mxCell>
        <mxCell id="EuI7MVh3GMwdLrdnFJbf-12" value="" style="curved=1;startArrow=none;endArrow=block;exitX=0.5;exitY=1;entryX=0.5;entryY=0;rounded=0;" edge="1" parent="1" source="EuI7MVh3GMwdLrdnFJbf-5" target="EuI7MVh3GMwdLrdnFJbf-6">
          <mxGeometry relative="1" as="geometry">
            <Array as="points" />
          </mxGeometry>
        </mxCell>
        <mxCell id="EuI7MVh3GMwdLrdnFJbf-13" value="" style="curved=1;startArrow=none;endArrow=block;exitX=0.5;exitY=1.01;entryX=0.49;entryY=0.01;rounded=0;" edge="1" parent="1" source="EuI7MVh3GMwdLrdnFJbf-6">
          <mxGeometry relative="1" as="geometry">
            <Array as="points" />
            <mxPoint x="880.0816326530612" y="853" as="targetPoint" />
          </mxGeometry>
        </mxCell>
        <mxCell id="EuI7MVh3GMwdLrdnFJbf-14" value="&lt;font style=&quot;font-size: 24px;&quot;&gt;Start&lt;/font&gt;" style="ellipse;whiteSpace=wrap;html=1;fillColor=#008a00;fontColor=#ffffff;strokeColor=#005700;" vertex="1" parent="1">
          <mxGeometry x="788.37" y="293" width="184.25" height="83" as="geometry" />
        </mxCell>
        <mxCell id="EuI7MVh3GMwdLrdnFJbf-15" value="&lt;font style=&quot;font-size: 24px;&quot;&gt;End&lt;/font&gt;" style="ellipse;whiteSpace=wrap;html=1;fillColor=#e51400;fontColor=#ffffff;strokeColor=#B20000;" vertex="1" parent="1">
          <mxGeometry x="788.37" y="853" width="184.25" height="83" as="geometry" />
        </mxCell>
        <mxCell id="EuI7MVh3GMwdLrdnFJbf-16" value="&lt;font style=&quot;font-size: 24px;&quot;&gt;16. Write a Python script to concatenate following dictionaries to create a new one.&lt;/font&gt;" style="text;whiteSpace=wrap;html=1;align=center;" vertex="1" parent="1">
          <mxGeometry x="500" y="90" width="720" height="80" as="geometry" />
        </mxCell>
        <mxCell id="EuI7MVh3GMwdLrdnFJbf-17" value="" style="shape=image;verticalLabelPosition=bottom;labelBackgroundColor=default;verticalAlign=top;aspect=fixed;imageAspect=0;image=data:image/png,iVBORw0KGgoAAAANSUhEUgAAA5AAAAGVCAYAAACIHh6+AAAAAXNSR0IArs4c6QAAAARnQU1BAACxjwv8YQUAAAAJcEhZcwAADsMAAA7DAcdvqGQAAHynSURBVHhe7f1fiCtnfi96f9fSxfJA1JWLxYKxus5srFjTW6OLODOhuw46xmNoq4MYtgmKSS425gwIRGbTuBMWITBkMsGQd7NIBE0SGgTz4qsMa5qwghFRW7yO8W5OtZg/ngOKrJEj7zWUyoZmXWypBjbtIOa9eKqkUqlKeqokdau7vx8QtKTSo6d+VaXWT8+/OwB+Dfzf+CfrELuIpr4fx/9n6//F/++PX/A+BdjP//7/F8D//U+wDqO+y9hgMMDGxob3YbrGLuMc4nlDt90yrqN1sqzPjcFggPv373sfJlobz5494/+vS7CszxQZ/E6yni7jHLgJx/6OZVm/9j647m5C4Ony8bwhIj9MIGndMYG8efid5Pa6Ccf+rvcBIiIiIiIiIj93/tf/+l/XrgWSiIhoWb70pS95HyJaO//7f/9v70NERFfijmmaTCCJiIiIiIhorjtPnz6dSCBVVXXfJSIiIiIiIgI4BpKIiIiIiIhkMYEkIiIiIiIiKUwgiYiIiIiISAoTSCIiIiIiIpLCBJKIiIiIiIikMIEkIiIiIiIiKUwgiYiIiIiISMqtSCCtdh3Hx8eoN0zvU0Rrj+cvES3DTf4sWYd9W4c6rMpN3jciCi/21ltv/aX7AUVR3HdvAAv/86N/w/kFcDG4AyW9iQ3vJrRSVruOdz/4CJaSxiaDHxLPX6JlsMwGPmyc4aOPWmi1xC3aZ5KJxvF7OLPLaLVaaFkK0r4Fhdl21a75Z4nZwPF7ZwHHbB32bR3qsCo3ed+IKIrQLZBWu47jehuWfd9sHE/cD0P8olVHO/DFJhrHx6gHbyAhjoQqkmJF3UTC+7SL1a6jftzATfp9zfnVcPJWR73RhrlIWG03MWbrRf78DWNVx21V5ZJw3eK7LvW12nWc6Ab6fe8zt8lqPkvWw2r2Ldz5u5o6rIfrtW/hjhuBMaMIQieQg34f2IgjDgCwYA3gur+e4lu7KBQK2N2e/bE36PdxO75f9NE3mtBPZiXvcm5PzK6O7PkbxqqO26rKJeG6xXc96mvBNPoAFGS0HAqFwugW7ZJKYHtUhgbV+/SEMNuu3io+S9bFKvYt7Pm7ijqsi+u0b2GPGzFmFF7IBFIkjIridF4YLPSLbjy+IZKZgfcZm2VB5KfrnJ5eD6o2/tJUyOWgqQqAPppn0VqPiYiuB/v/lJrGVoL/S4iIiBZ15+nTp792P6Cqfr+Rmmgc6zC8D3upGgphfp0yGzjWDahawC/BVhv1kyY2Rs+LegwyOexuAe3GGZqGyGAVNYOd7S1XS6hPnf3qZ9dhFiWTw+6W+4uHBbPdQqtp2L/YKFDUNHa2E4u1xFom2q0WDGP8S5CiqEjvbCPq9x6rXcdJs+8TYyc+KrTCNhJ2rPtKBrlddxztrRvH0A0FmdwutgbhYuauQ9pq4MyJm6Iis7ONidCKV8BsnKE1Jw6iXCCT20HcdB2PwHLD8B5jcY6l01v+x8I+ds75CChQMzvYnqjECs7fiTjsImHOiG+kc11CpHLljnEkUscC0nWIdJ7J1kHmmo8aX4nPqND7dsX1jca+lgKunzG582GSbNmQ3HZ+HcRnsf257X7piPd9onyWSJ4Pdn310XnuZv+/mHqNDPt8MKa7HU/+L5Pft5F512bo8zdsHeYfY0Q5FjLXJrCy/0NCmOvYu+2c/7HzhD5ukD4Wkcw7z4CQxwI+MZsRX5nzIWrMZOsQhkx9Qwp9DUnsW/jP37DkzslV7FtYIVsgV8xqoz5zTKStb6JxfOK6MIG+0cTJJc0OZjZOoLs+9ESXUB0nEceCChbaZzqarpMGAPp9A/rJJfRLjycgGiUNn7GRJnqG/Qt+1DMNCgatOk7ccesbaE7tm4V2/QS6bxz8zo0+jDPP8fAtN5zpYyzOMb3lU6rVRv1EHLuxPozmmU99V3f+GmfHPvH1i9lVC3uMQ5A+FmHrEOI8C1OHFV3z0+fvrM8o2X1bl/pKsNqoj8Z821+ADX1yLPhE2WHPh1WQq8OGogAYwAqqk91zZ9xTKKwQ54Nd3+WyxufD0ouWvTZXRe4Yu56RPxZhr80V/B8Kcx1Pbzvjf+xKhD0WIYQ9zySPxXTMguIb4XyQJF+HMFZXX/lrSG7fVvv5G/acXO6+hSU5C+sGNtNppNMKrFYPilbAaztppNW7MLvneODcn54abbY7v4LZPcfFb6pI3r8H639+hH877+PiS+I+nnXxUe8O/o+vJXH/HsQ/llYP54NzDKAgo72Cl3deQlpVYHV7GEzMDubUeVzvgaJO13Fj094mDcVqoTdQoRVew87otWlRF4fZwHv/NgBUDbnXdvBSOo10WoViPUPv3MAXvjPEyfgCz559gQdf08Q+jcrtojcY4E7Ecr949im65xdQVNfrLQvtn3+Afx8AUL+Gnc0NAPdw/zkLrd75OP4O82Oc9QZQv7YjyggZM1GHPi4uLqCoGl55bQcvBeyb1f4QunEBKBlor7yMnZdc8R30cf7FeAZDZ98uLjC33HBMfHzWw0DNIPfay/YxTkNV7uKLO/ewed9dqIX2hzqMiTrYdb47wBcbm/a5K7Zd+vk7EV9PHO4+Q899PYU8btJClhvmGIcjfyzC1CHceSZfB+lrPmR8w3xGhdu3q6+vtC+e4dPuOS68j7s99wC/lbyPeyHPh0nimg66NifN3la2DvcunqHVO8e9B3ZczAaO3/sYd1X7/+SzLj7qDfAg+ZIdt7CfJZLng/lzfPDvA0DJIPct+3PS+SyDCq3wMl6I8HEC8+fifJiIQxqqYqHbG0z+Lwuxb9LXZtjzN0QdZI8xwh4L2WtT1GIl/4fCXcdh/sdKCnncwhyLcCTPM3tb6WMRKr6S50PImIWrQxiS9Q0p1DUkuW/hP3/lhTknV7FvYYVrgbQsDKBgPASyj777/kLERAeKoqBvmHMyYhVaYXc8niWewKZfz9sVMEVTHLSJZt84EttpqACMnjfvlxXH1va2Z4xOHIkl7Zihu355PzlB0xBN3Zq7iT2xCRWYir/ZMwAlg3SU1ng3VcPuKG7jfRuMfspxJrtQoe26u7HEkdjeQUYBYPSmflmZX25EhgHT1RwbT2xhe8sTBMuEqLK7DhD12PLrRoCVnb9KJjcZhy1xTnqP59WKeIxlSB+LiHWQOc+k6yAeW8U1H+kzSmbf1qm+88S3sOudvEbVJibQKYy66kc8H5YqRB02FCiuY2NZA/FL9ETXkQX/L0ucD+J9ATXt6mYXTyCdmfML/UwW2i37fJiIAyJ3sxoJdW2uQohj7CZxLKJdm8v9PxTpOpb5H7sSEY+FjEjn2fxjES6+Uc6H+cLVIYzV1HdE4hqS3reVff5GPCeXuW8hSSWQlrMUxEkTffTRPLETEd0ARvf9mlfniMddawkN0O8rUNMqlIlulBuYmkPHZxrpxHYBhcA+yctizzoLA/rU0hh2N6mBFf3LumWiUfcsuzGnf3okigI1oyG3642X/c/fHX+rjZYBKKr7xItG3Zx3dJzJLqaPLxBHfENs4/1iMr/csBLY1lQo6KOpn+D4uI5GO2DZk4HoahCqDj77t4zzd3qyqQ34dii4UtGOsRTpYxGtDvPLDVMH29Kv+WifUdetvssV7XxYrhB1mPi/Kb50qKo6+qFIfKHx+b8Zgsz5ICbBA4yeqwuUZaLV7C/8/lCU5a8zGPbaXLoQx9hFur5hr02fekT/PxT2Og7xP3Yloh0LKVHOM596TB6LsPGNcD7MFaEOYSy9vmPzj0WIfVvZ52+0c3Kp+xaSVAK5av3+ADB7MBQViUQcG/bMrM4vnLeC3WfeWPqgD2FiFtbdXWxv+SeE8YT4UHd+TbFMA32oSPv/bHZzJbaxW8ghp2WgKn0YzSb0k2PUPWMSbtU5uubW4ViEqsOKr/mlu271vbHED0P9/sD+0qFiM62Mfngd9PurScC8Emn7V/EmTpwvJCf2FxLfL0EyFpvZfZZQ1+Z1cx2vTcn/sdfNWpxn1+18uFb1XZPP3zUglUA66//kMgpEU7tIRDQVYvxDoYBCIepsa4JlDez1JEXTfdQm1cVNZ/hj9q8Ao332ufnMYCrDbDXRB6BktMmytSU14cuyJ9MRv6bYTepzvwzMilkEfs30o19RovyyE1VcdKnZLaBQyEE0zrYmWtqdX+EX7i67Ck5XmsB1Wpd83EYkyl3BMQ59LK64DtGv+VnxXcfPqKupb2grOB9Ck6qDHbOBBcvswVAUbMQT4ku404QTeM0vkdlCs++dN0GBmslFnH0Q414T/T68X8NFN6zowlybk2advxFIHeNwol+byxL1Op7/PzY6ieO2gmMR/TybJVx8o58Ps2IWrg5hRK/vsoTZtxV//i79nAyzb+FIJZCOwcSvA84OLcL+ZzFo4azZHzXFJjZVwGih1celZvJidqU+DDN4zNiGogD9Js4a5owLLbqN+MboQFpmG43WYv80w4tjK60C/SZabRNGX0FmxuBHmZjJc/r9G9Ab7vLEtMbN/iK/bIdgtdFotGFOHOA4EvbamRPrljrjRpsnqLc9dW43lvSPUJbrzSwTjTPxoezXxWG5x21sfrkrPMbSx2Id6jAW5pqfH9/1+oxah/rOt8LzQVq4OoiY9WH2DHt4gfh86hst9Bb+vyzHGVeT3tlBLud8GdmdXqomFKerloGWc7FYJtr1Yyzcmy3KtSlx/soLd4yjCHNtLluo6zjM/9gI5h+3FR6LCOeZjFDxtYU5H+bHLFodwghT32ULs2+r+fxd3TkZZt/GLLQboktxUK8AyXUgBbNxDH3grBMoppttbkRd6wSigvUTERi41lVx1iSEnTWPsuMQ66vMWd9mem2b4NdMbuuu87Tp9RblOGslBlm03HCvd639FLAu5IhEzALrYL927ppaDkWF5hq3Ga7cENzn3xTXeeoIiMH0OmirOX9nnjtB7xVQfuSYOaTKlT/GoQW8f+CxmNxIWPQ8k6zDzOMWdM0HlB31MyrMvq1DfaORue7kz4egfXJM7FuYbUPUYXwsXOeU672i1mFZ54PfumXSAj5/FVUFDMO1LnS4fQNmbe/9fLAFbB81vlGO8aLHAlPXkMz1YAu1byGu44BjLPj8jw0roN5Rj0VoAe8/fZ6FOBYh4hvufLAF1DnyMQ4hUn0lhLmGwuxbqM/fUOTPyVXt28jENep/TYZogfS2OC5jrILzayMmWxqdNQmBxZqCw0psI6epcyYeiWNrNwdNFTMxLUt8axe5jOoqU4GiashpmaW+j5zxDGBzJ8+RilkYCWznNGRGJwDGsVjkAz2M+BZ2pvbJroPPRSRikIE68QKxaHCkz5BlcCZKmvpUsC39uNmkyl3hMZY+Fldfh0jXvFR81+gz6grrG84Kzwdp8nVwuslNdGmyWz4Avwm1li9uz/IM8XEzYaH12+Jb2NUy4zIVBaqWw256CWeH5LU5InX+hiF/jMOIdG0uXYjrOOz/2LCkjttqjgUQ4TyTIh/fSOeDVMzk6xBGpPounfy+re7zd1XnpPy+jcQTUO16KAEtn6FaIOn2MBvH0A3/Xx1ovQT+EkVEtBLOL9oqtJy3pdFCuyGWiuJnEhHRzRSiBZJuBwtmow7dAJRMmskjERF5jHsgeSeAt6wB+gbEL+eXNYEBERFdKrZAkuDt/z5v7COtDbZAEtHlmj2mBlhkHBAREa07tkCSh9PfmskjERH5cY2p8QyqURQVGY3JIxHRTcYWSCIiIiIiIpLCFkgiIiIiIiKSwgSSiIiIiIiIpDCBJCIiIiIiIilMIG8Rq13H8fEx6o1IyzsvxTrUgYiIiIiIomECGZqJxvExjt23a5EMWTANMed63+jhamq8DnUgIiIiIqKoYm+99dZfuh9QvHNye1jtOt796D+gJu/jHgCzcYz3Pr47uh+NBbPxIRpnH+GjVgutVgumaeG5Bwo27kUvdTUsmK0eBu6HFBXpzctaMdlE4/g9nNlxcm6maeE/nlNwfyMoXvdw7z9MdM8voKhfw28vqb5Wu44PP3iG59KbmF/iaupARERERESXI3QL5KDfBzbi9hqBFqwBXPejMNE4PoFu9OFek7jfN6CftNawlSqB7UIBhUIBhYKGdVn0pN830NRPcFxvw/I+aYtv7aJQKGB3iavND/qTx22eVdSBiIiIiIguR8gEUiSMiuK0HA3QD5M9+DAbOgxALF4/SswKKOQ0ZNTZraG3mpJxxSuHnKZCAYB+E2ftoBSSiIiIiIgoujtPnz79tfsBVfVrUzPROBaJ3kyqhkLIliWzcQzdUJDJ7WJLphnTMtFutWC4WiwVRUV6ZxsJ5/VWG/WTJja0AjZ7dehGXyRcuwmYjTM0jT4UVRu1glntOk6aQCa3i4TZwFnTEGUrKjI72zPqZcdl5n5bMNsttJwyoUBR09jZTkRstbXfU8kgt7s1WYa9332o0ArbEDXyOXYz6zuOcdMerwgoUDM72HYCYTZwrM8+G5RMDrujwIWtgwWzcYbWrGM8cdx2EDddMQ46bjLnDjCq7yCTw+4W0LbPGQBQ1Ax2tu24O/H2OxZRzu0AZqMO3QBUbReBISMiIiIiugQhWyBXpY9mywzsejlmoX2mo+nb3bUx1d110LKTRwDoG2i5EoG+0YK3oc44O8bJKNETr2me1Ke2C8NsnEB3l4k++oaOkxldTSOLJyAabQewohZutVE/ETEe68Noni0UB3kW2vWgLs1+x6IP48wT476B5tT5EO7cAQD0Rfdqdyz6RhMnzqRJTrz7BsypepnoGQDU9ELJoyinL/aztYJzhoiIiIgoBMlJdDawmU4jnVZgtXpQtAJe20kjrd6F2T3HA+d+hElRNjYVWGYPg/Meui0T1t3noNzfCJiQ5ws8e/YFHnxNw8s7LyGdTiOdVqFYXfQGA9xR0tjcAPDFM3zaPUf/4gJKJodvJb9Aq3eOweACqlaA9psmuud93Hsgtv/i2afonvdxcSG60r7y2g5eSqtQ7j5D77yPiy+pSN73q5E9oU7QJDpmA+/92wBQNeRe28FLo/o+Q+/cwBdOfUOx3/O5B/itqYmL7uHiWQu9wcVo38bHbnz8AusLC+0PdRgTcbDrfHeALzY2cf8egI1Nu7w0FKuF3kCFVngNO6P3SXviJV8Hq/0hdOMCUDLQXnkZOy+5Yjbo4/wLZfQ6cdwupo+b93wQW8udO6IWMFs9nA/OMYCCjPaKeI2qwOr2MBjcgZLexAbu4f5zFlq98+lzxPwYZ70B1K/tRDjGbhu4Y5noDZ6D+jtpvBA4SRIRERER0eqFa4G0LAygYDwEso+++34kCWzv5qBlVCjow2jqODk+Rr3R9mnViWNrextbE/0N40hs+nW7FeMEd9zNP0oG6QQQj/tXWMnksDvqWhpHYisNFUDfkGkdnWaKJihoE91V40hsi3KNnm+710I2fH8AkGSZMPqie+k4DrBj4dMldOmcZT5UaLtbrm6lcSS2d5BRAPgt/zFR3/H5MJhohg157gCiHoXd8WviCUxtntj0PUfMnjE63xaV2N5FobCL7cl+tkREREREl04qgXQWfz8+aaKPPpon9vqHugGM7vt1L5QlEpTdQgG5nAZVEV0FfbssWiYadbs+zi1gPJ6iTo4z9N732oh7n91A9HzMnqEWBnTvupHOeMCBFSkxnWWwyKxGA9G9U91cQtYTiT0pk7ppj990i0Pk/dPdc6XrG+LcAfzrkdguoDAaXwoACaQzymQ3VquNljH/fCMiIiIium6kEsjLFI8nsL1bQC6jiOS05WpvssfnGYskSTeak7RGaxW2xItvphWeO/GE3XpuZ5CWaaAPFenVN9kSEREREV0qqQTSWbtPJHUqNHv5CE0V3ULFchKLzTTpFbe7j7pb6cxWE30ASsaz5Ifm7Ve4JE6XzkjrXNotZhPLbXhuPjN3LsRsodkXs5BG6e3odO2d7PopY7pVcCF+3VRHyfEGphqKJaz03LEn0xHdWO1uuD6tl0RERERE151UAumY7B7pfKFfhIlGvYG26enKaVkwGy3RzdMneduIb4wes8w2Gq0Z3RBDcdXCMtE4E0mHdBdJjw1FEesyNszlJlhTLJjtBup2d0w1HTExdcbzNU9Qb7vH9Inyp7oTj8Zc9mGY0caJTnLGGBrQG573b5yJ5HjBxGw1504cW2kV6DfRapsw+goyyxj8aDMbdRwf1+FM/kpEREREdFUk14EUzMYx9IGz5p1YbqG5MWs9v3l81gecoELLjdfoE+v+BXdBVLWCWCfPXp8PzlqE9rqFo7UJ7fvO9jPL9a5XOGcNxMn1D+0YBRZt1zeU2TGbfP+w9Z21fcB6hgHbT5QbsI1j7pqRDkWFtjsef+gct6k4eo93mHMHGNfBe+xnctU7YF3IaFZVLhERERFReCFaIL0tjvaEJwtJYDunIaMqmJirRlGgqBpyruQRdlfaXEZ1bWtvp2UmX78MigI1oyEnnUD4iWNrNwfNu39Lp0BRM9ByhclkMIrENnJaBurE7EEK1MzOdPIIZ3t1gcmGvMbnxJh9nF3JY1irP3fGM7Qud/KcBDZVRRyD9DLLJSIiIiIKL1QL5E0V2JJFFILZOIZuqNAmZmklIiIiIro5QrRAEpE/C2ajDt0AlEyaySMRERER3VhMIImiMhv2epIn0I0+oGSw49vPl4iIiIjoZmACSbQwZ4wmJ7ghIiIiopuNYyCJiIiIiIhIClsgiYiIiIiISAoTSCIiIiIiIpLCBJKIiIiIiIikXNsE0mrXcXx8jHrD9D5FREREREREK7C+CaS9RIJ/fmjBNPoAgL7Rg+8ma8gyG6jXj8XSD/U2LO8GdA1ZaI+OaR0Nk0eViIiIiG6u0LOwWu06Tgx1tGSB2TiGPsgsfwkDs4Fj3YCqFbDtszK71a7jpNmHomrY9dsgEgtm4wwto4++suR9svdnJLD8VdVBtlwLZruFVtOASNEBRdWws50I2H4FLBPtVgtN+0cCQIGa2cH2omsshipXNg4W2vUTNJ2NgMBzloiIiIjougudQJqNY+jQUNhOjL88bzj3l2hOArlUlgWzdSYWg3fMTLLCMxvH0A1AzeT8E5ZV1SFkuU49p8x4zVJZbdRPmqOkbYK6wHkWstwocbDaDZw0Dd/yiIiIiIhugpBdWC1YA0BRNuz7A/R9v5FfL2brxE6wFGS0DGan0AtQMkj7JY8rrEOocs2GSJoUFVqugEKhgEJOg6oA6Ddx1r6E7pnxODYUFRktJ96/UEBOs2u9SHflMOVGjEN8K42M4n2UiIiIiOjmiL311lt/6X5AUfy+AZtoHL+Hs1YX5xfAxXkXrVYLrVYPAwAY9MR9S0F600kuw7Bgtn+Oxkdn+OijliirNwAAKGoa4yKdetjbyLynZaL98wY+OPvIfo0J6+4DbN6/N9pk485dmHeSeOW130Zi4wJmq4fBcw/wW8n7GG+1GMtsoXcRXGbUOpiNOt47+xSWknTFaSxMuebHZ+gNFGReeRkvOHnuvQ1sPrgLs3uO/sWXoPq8brk2sJncxP2N8bvc29iEYrXQG9zBb6pJuA7dyLw4hCk3ehy+wLNPuzi/p84+J4mIiIiIrqmQLZCrYMFsnEBvGstvzbTaqJ/orjFvANCH0TzDRCNSYgu7U2PbLlmkOpjoGX2xT62ASXmkyzXRs1vdEu6NLRPtlj0OsN8XPxisHYk4SLvOcSAiIiIiWi3JBDKB7UIBhYIG1Z4kRHTry0Bx348y7sts2d0FM+Pugu7uhROceozrEsxC+0yMeVNUDbnR63LQMtFbh8yGPeNm0M1vdlWrLZKSpUtgU1UAKFDTMkniDJYlkqKNuF2OBbNRx/FEAj6ANbVzlyEgqRuJGgefcpcRB6OFNmdjJSIiIqIbSDKBtFkWBlAwHgLZR999PzQL7ZYBQIW2uzWRHMgnAQEsE0ZfTJAy2QIXR2JrGwFDEZfKWavy+KQJQ1GR2fGffGURie1dFAq72PbPrEJTAJjtBurH47GTakaDdoWD+8yGDgPKzPhFicOscqPFIY6tnQxUpY+mfiLWKQ0YL0lEREREdB1JJZDuRKiPPpondmubbgCj+/XJbqFhKAoi56BBBn30AaibEVpFZ0hsj1tJfW8BM3ReF31DF92JRy23u9jeSmD5/YvlmI26mL1W211q0j+v3Ohx8CmMiIiIiOiGkEogV2d1s7ha1tWPUotv7drdcTNQ+gaarchziK5ePD5K4hVVdCcet9yK2XeBDcQvLT+y7KU0+lC13BKXcplT7oJxMFs6jL6CjN0de9cvOyUiIiIiuqakEshRIpRRRHdTu7VNU8XYRTG+0L8lZ7YNKIr/pCTmgoMG43GRBgxmDlYLL8oYyHhiC2kVwMCaem592McCCtT0ZHfiUXfgVbQU+xLri4oWwkKobqmzyZS7SBzsBFNNR7gWiIiIiIjWn1QC6RhMNBc6rTGLiEPkeQZaTv9Xy0S7HrCIexiJTagA+s0T1NumK3GzYLYb0bvbrhmzUcfxcR2NhRs340iIhQ7RPGtgNAeMZaJhT0akpv2754o6HKO+eCVGSV6zr9hJnvd5f/PjIFtu9DgQEREREd10d54+ffpr9wOqGjy3qdk4hj7IILe7hbjzhXxDizb7qsNqo34ivpi7KaoKGAY23F/2zYY97tKfkslNdhkM3F5BJudqMQ3czqY4+xzdZOx8RKqDicaxDiPw+bDlOkmWdyMxGZH/cXbVwRvXCKx2HSe+FbD57uf8OIQrN0ocMH7dotcEEREREdGaCtEC6W1xXNL4xfgWdrWM3W1QdA9UtRx207Nmu5SU2EZOy0AdFQ7RNTGzs1CSsz6iLl8RJI6t3Rw01RsvDbnAhCiBbd8lVy7TOsSBiIiIiOjmC9UCSdGJiVtUaIVt3LQUxDIbONMN9HEz90+e3RI6s5WSiIiIiOj6CtECSYsz0JoYj3m9ORMKnehiuQtVu83JowWz3bK78hIRERER3Uxsgbws3rGeAWP1rhPRqgooior0zvbkjKW3hne85OLjQImIiIiI1hVbIC9LfAs77rGeN0Bi217rcPe2Jo8eioKMdlPG1xIRERERTWMLJBEREREREUlhCyQRERERERFJYQJJREREREREUphAEhERERERkZRrm0Ba7TqOj49Rb5jep4iIiIiIiGgF1jeBNBs4Pj6Gf35owTTEugl9owffTdaQZTZQr4u1E4/r7RuzHuTtZqE9OqZ1NEweVSIiIiK6uULPwmq16zgx1NEahmbjGPpgBWsamg0c6wZUrYBtn9XprXYdJ80+FFXDrt8GYVkm2q0WmnZiCihQMzvYXtaaDPb+jPisA2mZbbRaTYyroEBV00hvJRaKbbhyLZjtFlpNY7RmpaJq2Nn223b1nOMMIPBciGJ+ubJx8K4DGVQeEREREdH1F7oFctDvAxtx+0u0BWsA1/3LE9/aFWsQLuObutVG/UR3JY8A0IfRPMGxfxNoaGZPJI9qJodCoYDCVMJtoqW7kjwA6PdhNHWcLFSHcOWajRPorqQJAPqGjpOraDG12jhzZ2bLIlGufBzi2NoV62HmMuLHF6M3HVciIiIiopsgZAIpEkZF2bDvD9Cf/T38eojHsaGoyGh2clcoIKfZLbHL7CKrZJCe0aKpqBloOfH+hUIBhVwGChavg3S5ZgO6AUBRx9vnNKgKgH4TZ+3LTCEttM+a6ENFJqN4n1yARLkR4xDfSiOoSCIiIiKimyD21ltv/aX7AUXx+wZsonH8Hs5aXZxfABfnXbRaLbRaPQwAYNAT9y0F6U0nuQzDgtn+ORofneGjj1qirN4AAKCoaYyLdOphbyPznpaJ9s8b+ODsI/s1Jqy7D7B5/55row1sJjdxf2P82L2NTShWC73BHfymmsTE5hFYZgu9iwf4reR9+Be1gfub9+GqAnDvPp6zWugNFKjpTfjtpdmo472zT2EpSVec3OTLNT8+Q2+gIPPKy3jByXPvbWDzwV2Y3XP0L74ENbD+y2W1P4RuXEDVXkPyi0/RPb/wnAuT5sdBkCk3ehy+wLNPuzi/p84+J4mIiIiIrqmQLZCrYI27Cy67NTOwa+oZAhqR1oplNtAyACWThn9HXRM9oy/2qeXtWhnMv1wTPbvVLTE5MBPtlt2Vs98XPxismt3FVMnkJMcSSsZBqtw1igMRERER0ZqRbIHcwGY6jXRagdXqQdEKeG0njbQqWmQeOPejtLqYP8d7/zYAlAy0V17GzktppNNpqIqFbm/gaR1y6jGuy0AJau2x0P5Qh3EhJj955bUdvJROI51Wodwd4IuNzTmtiiY+PuthoLyIl/7zuLXJbBzjvTNXC6j3Zt6dbp2y2vj4Z+cYPDerBRKizvV38YHdCtvtDfAgk8PLgd1eN3DHMtEbPAf1d9J4YaKZ0U2iXOszfNw9x8WDJF7a3LAT+w/x3s/+HeeDC3uj5bTGzmYft+cyeGU7gXsAvnjm31I4JhMHyXIXioPdAnlu4a7yYKJFm4iIiIjoJgjXAmlZGEDBeAhkH333/dAstFsGABXa7tZEi09QyiTNMsXEMfYsrePy4khsbSMwJ7OZDR0GFGR2vJPdyHPWqjw+acJQ1EhlGc0T1Gc0lya2d1Eo7GJ7orlsvqByFQBmu4H68Ql0ow8xG60G7ZIG91ntMzT74eM+Lw5hy40Whzi2djJQlT6a+olYp9QnxkRERERE15VUAulOhProo3lir3unG8Dofj16t1BF8R3ft5BBH30A6mZgX8VAZqMO3QBUbXcq0Uxsuyaj8btNza4axnhGTzGRj5jspt88CVgPU5Z8uX1DH80+qqgacoVdbG8lsPz+xT5GXUx3puK+kAjlRo+D5BsQEREREV1DUgnk6qxuFlfLijJKzRLrWhp9qNqscXJynKVGcloGSt9AsxUuC4wntrBrz5g6sKJm59N8y43HR0m8M2vruOXWXq4FG4ivMD+yTJGw9Zui9c65Oes1Grq4H7ZVL1S5C8bBbOkw+goy9uytu7IZKxERERHRNSCVQI4SoYwiupvaLVmaCkDJIFcooFCYbq2bbwOK4j8pibNuYlTxuEgD5BMvsSC8aHksBHaFNBvjBMT3NrVOoEjY0iqAgTX13PqwjwUUqOnJ7sSj7sCraCleO4vEwU4w1XSEa4GIiIiIaP1JJZCOwURzodMas4g4RJ5noOW0Klkm2vVjsQ7fIhKbUO1Wp3rbdCVuFsx2w9PdViSPzb5iJ4/u566OZZlonDXRhwI1MKGt4/i4PtUVdRb/cuNIiIUO0TxrwHTiM9oWUNP+3XNFHY5RD1MJH84PFd6b+OFCJPZBrXqz4hCu3OhxICIiIiK66e48ffr01+4HVFV1351gNo6hDzLI7W4h7iRdGxoKi2RcVhv1E/HF3E1RVcAwsOFO6MyGPe7Sn5LJTSYXgdsryOTGLaZWuz7qzuhLcfY5usnY+Qisq89+jZhoHOswMKOOocp1EmnXQw416Di76uCJ67I4xyc4uZeIg4/gcqPEAePXLXpNEBERERGtqRAtkN4WxyWNX4xvYVfL2N0GRfdAVcthNz1rtktJiW3ktAzUiaVJFKghJlO5Osp4DF5gZRPYVBW7u6V7ptlZZpUbx9ZuDprqjZeGXGBClMC2Fvyjw+WIEodZosSBiIiIiOjmC9UCSdGJyXlUaIVt3LQUxDIbONMN9HEz90+e3RI6s5WSiIiIiOj6CtECSYsz0JoYj3m9ORMKnehillNVu83JowWz3bK78hIRERER3Uxsgbws3rGeIcbqrSvRqgooior0zvbkjKW3hne85GrGgRIRERERrQO2QF6W+BZ23GM9b4DEtj176e5tTR49FAUZ7TqMryUiIiIiioYtkERERERERCSFLZBEREREREQkhQkkERERERERSWECSURERERERFKubQJptes4Pj5GvWF6nyIiIiIiIqIVWN8E0mzg+PgY/vmhBdMQ6yb0jR58N1lDltlAvS7WTjyut2/MepA3j4X26DjV0TB5pIiIiIiIEGUWVqtdx4mhjtYwNBvH0AcrWNPQbOBYN6BqBWz7rE5vtes4afahqBp2/TYIyTLbaLWasPNSQFGgqmmktxLL2S97f0am1oE00TjW/Rein9o2jLDlWjDbLbSaxmjNSkXVsLO9nDiIOBsw+k7pKrTCNhY9gnLlyu6bd21HBJ6HRERERES3SegWyEG/D2zE7S/cFqwBXPcvT3xrV6xBuJRv9SZauit5BIB+H0ZTx4l/E2hoZk+kcGomh0KhgMJU4rYezMYJdFeCBQB9Q8fJwi2molXvRG+6krxlkC9Xft/i2NoVa1zmMuIHFaO3nPOAiIiIiOg6C9kCKVpmDDWH3a34uHVL1VBYSiLnMqcFcrlMtBsW4uktJJyszmqjftJE37clK7z5LbUiloOME9tlCVGu00qqqNB2tkUsLBONMx1GH1BkyghgNo4his4gnU4gEY9Wjpd0uZH3zW6N3FjBOU5EREREdM3E3nrrrb90P6AoivuuzUTj+D2ctbo4vwAuzrtotVpotXoYAMCgJ+5bCtKbG94XS7Bgtn+Oxkdn+OijliirNwAAKGoa4yKdetjbyLynZaL98wY+OPvIfo0J6+4DbN6/59poA/c372PD/dC9+3jOaqE3UKCmNzHjHaRYZgu9iwf4reR9uN9mzILZ6uHiwW8hOVG32cxGHe+dfQpLSbri5CZfrvnxGXoDBZlXXsYLTi51bwObD+7C7J6jf/ElqIH1n8Fqo/Gzc1yoGr61/QI27smVMHffQpQbfd++wLNPuzi/p84+z4iIiIiIboHQXViXzxp3LZzdAzE8q436iY7mZN9UGM0ztOf0x7TMBloGoGTSC7c+ro6JntEX+9TydsMMy0TPAKCo41ZY2Al4y+722e+LHwxCskwDfSjIpMNEcv6+yZe7un0jIiIiIrpNQnZhFd0h4XQrtbt5bizSzXTUtTADbWfchdQyGziZ2YV1XvfZ8UQokxOliIlUrMQ2Jnss+kyckslh29Ot0ekyGchvYhqrjcZJE4bfcyM+k91ITORjNurQDUDVdrA9kR2NtpAr1+myO4qnBbNxBn0i+VaQye164jafiJmKjAYYLdcPBYqKTDqNLd96z9836XIX2jfnvFCQ0XYC60pEREREdBuEa4G0LAygQHF68g366Lvvh2ah3TLEjJm7rvGHQGDCJM0yxaQ49iyt4/LiSGx5k0d/RvME9XlNlTM4a1UenzRhKCoyO0HJYwBnIp+pSV7GEtu7KBR2fROsQDPKVQCY7Qbqxyd2gqVAzWjQMn5dm2XYEy3BQFP3tDL3DTT1k4ClWubtW/hyo+1bHFs7GahKH039RKw9usA5QURERER0nUm1QDpLZswW1IIzi926A5+WubmT6MxpgZz7+tkss40zvQmRg0Yswx03RUVmRy5xdVhWG62TJgzMmuQlPN9yR5MGjblbbkVr3wLH2GkJTicg5rmxYLbPoDf7QNAxnClEuYvum2uyHSz5WBARERERXSfhWiCXbrD8cY82SzRPRRZPbGE3l4ECYGBFa3FylhrJaRkofQPNVkBTW4B4fAvb2nRCvyjfcuPx0URBipqBlhNLpIg0yWnt27CTtAiUjEjYRq+PI7G1g4wI8FRLqDSZchfcN7Olw+gryOTE0h5MHomIiIjotpJKIEeJUEaxF2gXX6Q1VXyBzxUKKBQCWm9m2oCi+E9g4qybGFU8LlKGqMlfELNxLLqlBt18uoXGE1tIq9ESpUUT4SDT5drHAgpU93ImEC1wosenEmE22jjiG6JbqRl252cKU+4i+2YnmGo6wvlNRERERHSzSCWQjsFEc6HTcrMIOwmAgZYzrswy0a7PmahGRmITKoB+8wT1tulK3CyY7cb8WVgtE42zJvpQoPqOwVs1C5bZwFnTHqsXUAezUcfxcX1qvF+woHLjSKgKgD6aZ41xUjaKA6Cm/cdwijocox5QicSmapfrTq7FRDaiC6r/JEHz9k2+3Oj7RkREREREY1JjIB1m4xj6wBmvuKQF1n3GpwGAoqqAYUzO8OrM2Bpgamxa4Pae8W6B2/mUGdFk7HwE1kGBqu0GjMF0zbAaNMNrqHKnZ6IdCRyn6J7lNWgc4YxyFRXa7rbPUikS+xaq3BnbBu4bxq9b9DwnIiIiIroBQrRAelsclzR+Mb6FXS1jdzEUXQlVLYfd9KyZMSUltpHTMlBHhUMkTpkdnyTHTRmPlZu94Qo5dfAmeW4JbKqK2Ke0fyvetFnlxrG1m4OmeuOlITe9sS0xPZ5yin+5iqoh55s8QnLfwpTrv+3sfSMiIiIiIrdQLZAUnbNmoVbwJjbXn2U2cKYb6OMm7t+c2X6JiIiIiG6REC2QtDgDrYnxmNebM6HQiW7Yy53ctOTRgtlu2d1ziYiIiIiILZCXxTvWM3Bc3/UhWlUBRVGR3tmenN30WvOOlwwa20lEREREdLuwBfKyxLew4x7reQMktu11EXdvUvLooSjIaPPGzBIRERER3Q5sgSQiIiIiIiIpbIEkIiIiIiIiKUwgiYiIiIiISAoTSCIiIiIiIpLCBJKIiIiIiIikcBKdm8Rs4Fg3oGoF3I417000jvXJdRpVDYUbuPOW2cBZy0C/fzOWgCEiIprPtayWokBN72D7xk77TnR9hE4grXYdJ4Y6+gJrNo6hDxb5QuuTBLjchGTIatdx1txAurCNle7Kogmk/fpJChQ1jZ3tRMTju0o+586cBPLSjsUyeY9LYAJpwWycoWX00Q/cZtVk62DBbLfQahqjtVEVVbvc88wy0W610DRGNYCa2cH2Za7ZEqoOVx8zy2yj1WpiXF0FqppGemtd63D1MXOz2nWc2AvMRv6cXtD8Olx1zHw+1x0zP1OWKWwdrjpmY+L6MGD0nZqo0C75/51cHWRj5l2XOei8JaLLFLoL66DfBzbi9gVuwRrAdZ/8DPr90Qfk9dNH39BxUm/D8j515RLYLoi1KAsFDbN/+hCu47Ewe+JrjJrJiX31fnmxLJiNOo6PT6AbV7R/IetgNk6gu744ALjc88xqo36iuxI3AOjDaJ7guGG6HluhkHW48pjBREt3JW4A0O/DaOo48anvaoSrw9XHzMVq48z9LfgqSNRhrWJ2TaxHzCy068c40ZuuxO2yyddBPmZxbO2K//O5jPgvb/Smr3Uiulyxt9566y/dDygzV7q38NnHXVw8+BqS9+8BeIbuRz0MFBXpzQ3vxpIsmK0eBqqGwms7SKfTE7fIxa4Ry2yhN1Cgpjex0t2xTLR6AyhqxLjZr1e1Al7bEfFXlbt41jvHxcUFvqQmcf+e90Xrwj6P5pyLl3YslsgyW+jdyUDbTsAv/ObP34VuXABQkNFexL3eOQbPPcBvJe/7br8KoepgNvDevw0ARYX2ymvYeSmNtKrAetbDoH+OZ3dV+/Nlhe5d4Jl5B//H72h4eecl+1y30O0NgMEdKJdxfoSpwzrEDBZ+Zf0mktrL4v3TaaTVuzC757jw1ndlQtRhLWLmsND+UIdxoSKTuYPz84von9ORSdRhLWImPsvvZHL41sviuhjd/D5PViJEHdYiZoDZeBc/OwcUNYPf0V7CzktOvS/juhSk6xAxZvfuK7hrdnF+b/b/eSJaPckE0kTj+D2ctbo4vwAuzrtotVpotXoYAMCgJ+5bSoSLWu6Lv/hl61188FELluL5p2e1UX/3A3xk3oVqf7hb7Tre/eBT3FWTuPc/G/jwgzN81GqhZVq4+2DTJxGyYLZ/joazXcuEaT2HB5sb/v+wLBPtnzfwwdlHdixMWHcfYNMp2Gzg+L0ztFot9ESQ0Gu17G3FzZz6kAxTB3vbj87w0Ud2meKNpr8UyPJJQO9t3MeDuya6533ce+AtN0J9R9u2YFp38ZxyHxuujcVx+2j6GNvxnI6ZY8Z5FOlYhGc26njv7FNYSjJa/ANYZgu9i4BkDMDGnbsw7yTxymu/jcTGhYhDUPLmssz6hqmD+fEZegMFmVdexgtOU+q9DWw+EIlA/+JLo+t4dTawmdzEfdfJd29jE4rVQm9wB78Z8GPJMmMWpg7rErP7m5PXK+7dx3PW7B9llh0z2TqsR8wEq/0hdOMCqvYakl98iq5f8uay3JgJMnVYj5iJz/KLB78V6jN5uTGTr8NaxMxqo/Gzc1yoGr61/QI27sm921JjFqIO0WP2BZ59ygSSaB2E7sJ6deLY2hXdFA29gXEHBgvtsyb6UJDZ8Y5LAIyzY5y4u0n0DTRP6mh7+pVMd6eY0XUzsOvZ2VS5YcjXwRpvO7uXyErJ19dvW6BvNKG3bkpXFBM9oy/Og9b0/q9UYgu7U+NG5llyfaXrYKJnAFBUTMyDYJlot+zzo98XP0ytnSXHTNr6xswyG2gZgJJJB4yxWn3M/OuwRjGzu40qmZzkuK0VxEyqDmsUs9BWEDMp6xEzyzTEd6B04MH1sdyYyddhPWJGRIuRbIHcwGY6jXRagdXqQXG6ONpdhx449yP9ImS3HDmtmBM3y9MtagObioVWz0DPbu0c/6r6Lfz2/XGpXzz7FN3zPi4uxMDsV17bwUtpFcrdZ+id93HxJVeLk9OdQtWQe20HL6XTSKdVKNYz9M4NfDHRGuZ0A3KXa29/d4AvNuzWzY3NUZcX0aKgQiu8hh1XV5iJXzbD1MH8ud39IwPtlXFXLqf7m/dXZWk+LZCW2cDZz85xARVf2/HpHiZTX5j4+KyHgZpB7rWX7W1F99gv7tzD5v1xZcVxm/5l3Knbc4G/CM9ogQx7LCLZwB3LRG/wHNTfSeOFiSaSBVhtfPyzGd1Bp9hxmLv9iuoLzK6D9Rk+7p7j4kESL21uiG0bH+K9n/07zgcX9kbBLYCrZZ+nyot46T/7xW6VMXP41GGtYjbuCdJqtdDtDfAgk8PLvpP+YEUxk6jD2sTM/n/xXAav2F3QAz/jRpYdM8k6rFHMzFYP56OeTi20TBPWfzwH5b5f7xasJGZSdViTmD3rfoTe4AEePDDxUcPVK8m0cPc5ZaKXw9hyYyZdh4ViZrdAnlu4qzwI2C8iugzhWiAtCwMoUJx/OIM++u77lyGxDU00Q6LRticEULXAX1WVTM7VMhJHYisNFUDfMEe/uIlJSlRoEy0ocSS2xbYTA7YtU0zgoGqeFpc4ElvbCPweNYd8HSy0W/a2u1sTv+BFfOsphn6M42NxO9HFr4qqNjmDmnx9XQwDpjn+nTOe2ML2VsCBu4YS27soFHaXMsW41a6LY3DShKGovq3ri1pmfcNSAJjtBur2pDti9lENWsbvB6zLYTZ0GAE9GRyrjtmsOqxjzADAaJ6gPqPrxapjhhl1uOqYWe0zNPv+x3OWZcYsbB2uOma+nImSfHq3OJYZM18z6nC1MbMnM4SBpu7pldQ30NRP4DO/FLDUmIWvQ7SYxbG1k4Gq9NHUT3B8fOx73RPR6kklkO4vs3300TyxEwzdAEb3p7uFhqJq9mya7pt32mchsZ1DRgGMZhN9O4kJshH3fjBuYLKRdfzBp9tJ0/hmT+M9sMb/MAZihkl1M/g9wwtZBwBQFN/xRsunIpPb9SToYeubwLamQoHzoV9Ho92GK5ekW6Zv6KMuzYqqIVfYFT8mXFGfbLNRh24AqrYb+UegRc2rw3rEbDwjYqFQQE7LQAHQb05/QVwd+TpcacxG3UZ3fI/npYhQhyuNGeCZXds+xrmMmGW738TZQl80ZIWrw9XHTFBUDbmcU+fcKBnz/UF3RWTrED1mkicyEa2UVAK5fgbzP2NWxBKZ0xVa/b6rmvuLmYHmiXvMaUSJbewWcshp4tdDo9mEfnKMuvcbHwEA4lu742PQN9C8KWNF4/HRDx+KmoGWK7ha8p0fJjYw9bvPylhiLVujD1WbNT5slebUYe1iNhZPbGE3JxK4gXUZX+yn+dZhDWImxoSJxNb9I5uzBqPT02OVLSih6rAGMQsSj29hW5NZqGl1fOuwTjFTMmINxdF7xZHY2kFGXBhTraYrIVOHBWNmtnQYfQUZO0ndlf1lhIiWSiqBHH2ZzSj2grDiwtVU8YGRKxRQKPj/ar4Ko25edoKj+3QpCeR0QR2tXRlHfMO9Hz4317p78bj46Av/ZWmA4JeEqYPdguozyNxZL3BZ4okt7GQUAAZaE19ywtTXLS66re4WUCiIVuS+0ZJquTbtGWaXY9axWC/xxBbS6iV+AVg5pweAAjU92QV7dG1eWuu6WKBatPoVltCNKwqZOqxTzK4Lxiy89Y7Z1f9461eHdYiZ/f+4b1xhr54wdVgkZnaCqaYv7fsmEfmTSiAdg4mmL+eXostltUU3LyWzgy0nwfHpUjLmetwy0ThrTnVB3VDsMhrm/MQisSnGUDZPUG+Px1ECFsx2wzcZ2hAZHwzTvf0k+TrYH9TupM4y0a4fQ19u/ggAiDtjRj0zzMrXF2J670Yb5sSGcSRUEZe+6zxyEnSj5/woIBaoF2MkFidzLKIyG3XRPfeaNBZeTX3Hx7151hh/2XBfm2m/Hx+c+i6r1Vokbs2+Yidu3uf9LTdmsnVYl5hNs0Z1UKD6Jr/Ljtk0/zpcfcycH169N/FD7Linh18LyrJiFq4OVx8zf5aYzK3ZF0nHlZxnQXVYj5glNlW7Du4f0y2YjTM0+4Ci+s+QvcyYydchesyIaH3cefr06a/dD6hqcDcRs3EMfZBBbncLcefLz4aGQvA3HwkmGs64OR8TX6ysNuonTfQVpw5wfQmb3NZq10fddKao3jqPy/Az9eXObNjjP70UZHI+LbEB2yuZnOvLQ4g6OHHwbKOoKmAY2PDWV5Zdz8D9nYjb4vUVVGgTY10DzgdFAfpiGvpRzALi6piMry3gNb7bhuKq98T5ubjJ685HwD6N+NZnyfUNVYcZ587UtelwnxcB11kIMz8f4K2vY7kxC1eHq4/ZrGMcfP0sN2bh6rAGMfPhHPepz9mRJcfMR3Ad1iBmgcdYgap5x+M7lhyzUHVYg5jNqoOiQtv1m09iyTELVYcZ2wbGDOPXLfy9k4gWFaIF0tviuPqxeJNMNE781nsUs3Ip8K4P6UMRs3zlpj544tjazUFTFYjfZedIbNtj+dxbK1CDJipIbCOnqXa3jSAh6hDfwq6WGZenKFC1HHbTc18ZTSItxjBMdDcNV9+dqf1X7IHz3n9sCWznMlBH29rHbFe0hC5M6lhEkcCmqoj6pv1/7V0vV1nf8bkzFnRtOsRETFeLMZukjMcw+X7w4RJiNqsO6xgzGauO2SzrGDPnGHsTN7dVx2xWHdYhZv51UFQNOd/kESuIWZg6+G87O2ZEtE5CtUBeJ8G/sBJdL2KCFW9L7e1jmQ2c6YaYefmWx0IWYxYeYxYeYxYeYxaF3Wo6s5WSiC5DiBZIIro6BloTY25vD7NhzxypixklvWuS0jTGLDzGLDzGLDzGLCoLZrs1PbyFiK4EE0iiNZdIO+vc6Tg5PsZxmFmHbxBFUaHl2KMgDMYsPMYsPMYsPMZMloV2/RjHxyfQm30ACjJpBo3oqrELK9E1YJltnLWaYtzxUiY8ICIiWneuCXcUBZn0DrYCZuIlostzYxNIIiIiIiIiWi52YSUiIiIiIiIpTCCJiIiIiIhIChNIIiIiIiIiksIEkoiIiIiIiKQwgSQiIiIiIiIpTCCJiIiIiIhIChNIIiIiIiIiksIEkoiIiIiIiKQwgSQiIiIiIiIpTCCJiIiIiIhIChNIIiIiIiIiksIEkoiIiIiIiKQwgSQiIiIiIiIpTCCJiIiIiIhIChNIIiIiIiIiksIEkoiIiIiIiKQwgSQiIiIiIiIpTCCJiIiIiIhIChNIIiIiIiIiksIEkoiIiIiIiKQwgSQiIiIiIiIpTCCJiIiIiIhIChNIIiIiIiIiksIEkoiIiIiIiKQwgSQiIiIiIiIpTCCJiIiIiIhIyrVNIK12HcfHx6g3TO9TRHSFeG16mWjUG1g8Gssqh4iIiCi6a5pAWjCNPgCgb/T4hcphNnB8fAx+b79tTDSOj3Hsvl3ZScBrc5KFdl2H0QdgeZ8LyQLQN6AfM4kkIiKiqxN76623/tL9gKIo7rtTrHYd7370H1CT93EPgNk4xnsf3x3dD8Vqo/7uB/io1UIr8GbirprE/YnC7+Hef5jonl9AUb+G397ccD95e1kmWr0BFDUNhuQ2sWC2ehi4H1JUpK/kJJC/Nq12HR9+8AzPpTcRvNW6sGA2PkTj7KPR55Vp3cVzyn1szPjgMxvv4mfnCjK5l/FC3PtsSPc2sKnehdn9d/y7pVzR8SUiIqLbLnQL5KDfBzbiEN+FLFgDuO5fnvjWLgqFAna3E96niG6ZBLYLBRQKBRQKGlTv05dM9toc9PsQbZXrzkK7fgLdmKxv32hCP5nRGmg2oBuAktnB1rI+IONb2MkogKGzpwERERFdiZAJpEgYFcX55XuA/iLfAONb2B198S2goImvvqrmeqywu7wvX0REIVntMzT7AJQMtJzzuZSD+LgyoPtmchbaLQNQMthZ8gdYfCsNFYDRai/cK5aIiIgorDtPnz79tfsBVfVrvzDRONZheB/2UjUU5rQ6zGQ2cKwbULUC/IvxqYffe1pt1E+a2NAK2OzVoRt9QMkgt5uA2ThD0+hDUTVPC4kFs91Cq2nYrQwKFDWNne3EYq2rlol2qwXD1XqhKCrSO9tIuAq22nWcNIFMbgdx01UPRUVmZ9snibbraxhTSXxw/GR44wAoagbp9FZAfXeRMBs4m1dfyTiM2Ns37fF0gAI1s4Pt6YJXc9wQsg6NM7Rm7VvIczJ0fEfsa8TvuhiRiZlodWv2fc4ne1/6Sga53S37NZLXpn2Nz6Jkctjdige8z5jZOIZuKMjkpn9kMht16AagarsLXAtw7ZcKrbCNyaKcGPk8Z+/naF98hL/mx8Rr+9PHhoiIiGjFQrZAXi+Dlv1FHWLyiZb9RV3cbaHt+vnebJxAdyVNQB99Q8dJfZFf+S20z3Q0vV3f+kZA17c+jDNPPfoGmlPbWuP6epLHRU3Hwe6q15quLQAYZ8c4mapvfSK2oeNgtVE/EduP9WE0zzzl+tV3GcctTB0Cujf2DehTcQh3TkI6vuHIxSyOrV3RHdbQ3cfIQvusiT4UZHamk7qliiegKmKfzan9NdEzAKhpn0TLRM/oi+O1aCud2YMBQMmkPckjAMSRUBUABnqek9jsGeIHB99fR9xkr/lJ8YQKBYDhfWMiIiKiFZOcRGcDm+k00mkFVqsHRSvgtZ000updmN1zPHDuLzqpw9xJYJx6jOsy8Jss5Itn+LR7jv7FBZRMDt9KfoFW7xyDwQVUrQDtN010z/u498B+H7OB9/5tAKgacq/t4KV0Gum0CsV6ht65gS+UoPrM8wWePfsCD76m4eWdl+x6q1CsLnqDAe64yv3i2afonl/g4gJQVA2vvLaDlwK2hflzUV8lA+2Vl7HzkoiJqljozozfPCY+PuthoGaQe+1lOw5pqMpdfHHnHjbvjwsV9e1P1/fuM/TO+7j4korkaOYj+TgAFtof6jAmyrW3vzvAFxub4wmVVnbc5OtgtT+Eblx4joVdh0Ef51/Yk52EPCfDxdfNnlDH77pA2JhtYFOx0OoZ6NmTtjj7q2rfwm/fdxcseW1ubNrbpKFYLfQGKrTCa9gZvTbt2q97uP+chVbvfHp/zY9x1htA/dqOzzHewB3LRG/wHNTfSeOFWbPczGN/Jj1IvuTzPsC9i2c+n1kWPvu4i/PnXsRL/zl4crFQ17zXvXv4D7OL84vfjDaBGREREVFE4VogLQsDKBgPgeyj776/brzjj5QM0gkgHp+ssGgtUKFNdOGLI7FtjzWK/Ct/HFvb29iaaIWII7Hp103YZndjFK8YbzuwnHYUe2wVVGi7k91K57V1SDMMmK4mn3hiC9tb0+0vcLobuutrj8/qG+Zka5ZsHCxTLHkwEQfYZU9261vZcZOug7NkhfdYxJHY3kFGNBFNtiRJnpMOufjKCx2zxLYY62foaLTbOBN9Wi+v22Ri03d/zZ4YX5gOqEdiexeFwi6257YAzmZZE3PbBhpfnxiPDZedXGzuNe8njvgGgH5/cvZdIiIiohWTSiCdhcGPT5roo4/mib3WnG4Ao/uLdatbBUWdHAfnvS/YM8nCgO5dS88Z0zWwIn1ZB0Qy0qjb8XNuM8aAqZsB34i9FGUFSx8ksK2pUNBHUz/B8XEdjXbbp/vg2EbcG9EN+DZiy8ZhILqCzo/DCo+bdB3sREHd9O3eKHLCAdx5gPcc9N73ko6vlGgxS2znkFEAo9lE304+L08C6Ywy2Y3VaqNlzI/dMgQl9l7Tx0ne/POMiIiIaH1IJZAUkT2OzljqQMUFZ76dJ7GN3UIOOS0DVenDaDahnxyj7jvTpKQQcZBt8VmldajDelnxOTeHGO/Xh2FnkJZpoA8V6enBjysT1BrIc4WIiIhuG6kE0lnXLZdRRPc3e4kNTRVd8HLXerkNu6VotB8+N58ZIGWYrSb6AJSMNlm2vVxJNHYLlE/XNdE9cRniotvqrliuQDQATU/w4svp/unqvhcmDk6LT9AX9rHVHTf5Oti83VQBV2vfBhZonJrmE1950WJmNnQYUJDRMlBgQF90gqIJky20vuzJdEQ3VrvbsG+r7wpsKBDz+Ph1GTbRaoouzJONiPY16tOauzz2+bWSnghEREREwaQSSMdgohnC+YJ8/W0oCtBv4qxhzv8yG8FGfGP0pdwy22i0Fkn0nK6RBlpORmeZaNeP4dcjNBSrjUajDXMiCM5Mk330fY+3a1vLRONMJIt+3fKk4uCMeWueoN52f2m3YLYbE0nsyo6bdB0SEMPVxFqAE9s17LUDF0505OMrI2zMrLZYDkPJ7GArYS9i32/iTOrXhNk2xC8hMEy/5Mwtjq20CvSbaLVNGH0FmaDBjzazURddsKcz+3DiW0iLkwEn7mNsmWjXRbff6RlanfGJfrPHLslCPyQQERERRSe5DqRgNo6hD5w12ew10DZ81nqLat46kHPWkPOuHwfnvndNtqn3Ga955yewPnM4a7UFcZcbuK6bt+5iY7E+nmszAFBUFTAMbHjLkBVQrjC51t3MffOs/zdzW7/4Bh5n75p/qzluQJg6+Kx/6FBUaLt2zEKekzNj5l1fMbCuwuRahCFi5rsOY8D6kKHqYAt4je+27jgHrAs5FmZbCbOui6DyvcfXR6hr3iPwtUREREQrFqIF0tvieLXjopYrjq3dHDRVdFdblvjWLnIZsV6boEBRNeS0zGLvE9/CrpYZT6aiKFC1HHbTC5UKxLewo6meSVrsOnsXSvejKFAzGnKeb7Sh45DYtsdgup9VoGZ2PN2kV3PcgDB1SGA7pyGjTm6nqBpyTvK4LAHxDUc2ZiYaJ37rPcaxtSOO2+T6kBEktpGbOt+COK29MpPnJLCpKuJ4pedtKyG+hV2fY6xmNP/kEQASadH1u9laLEa+7G68M2ahJSIiIlqVUC2QRA62gKwW4zvNbBxDNyZbwteaREtiFDw3iIiI6CqFaIEkIroKFsyGMxbTO95wjdlraPabZ3ITUMmwrmAtTiIiIiIXJpBEtJ7Mhr1G5Ql0u8vmzhJb8i5DYluDij6aJ43FJ9Sx7G7FSmbBbsxERERE0TGBJKI154wpDRhvuNYS2C5oUBVg4crHYU/MdB3jQERERDcFx0ASERERERGRFLZAEhERERERkRQmkERERERERCSFCSQRERERERFJYQJJREREREREUphAEhERERERkRQmkERERERERCSFCSQRERERERFJYQJJREREREREUphAEhERERERkRQmkERERERERCSFCSQRERERERFJYQJJREREREREUphAEhERERERkRQmkERERERERCSFCSQRERERERFJYQJJREREREREUphAEhERERERkRQmkERERERERCSFCSQRERERERFJYQJJREREREREUphAEhERERERkRQmkERERERERCSFCSQRERERERFJYQJJREREREREUphAEhERERERkRQmkERERERERCRl5Qlk9zCLWCyGbKnmfYqIiIiIiIiukcUTyFoJsVgM/vlhF9XHOgBArzyB7yZrqFsrIZuNIRaLIZY9RNe7AV1DXRyOjmkWpRqPKhERERFRWIsnkDMlkX9DAwBoxdex5306si5qpSyyq0jwaiWk8hXoIu+doYvPH2Xxwe/F8O53DvEr79ORyZbbxec/Kont7NsHj2oztl+BXg2dR9nR+7/7e1n89EdLOBqhyo0QB11HJZ8K+NGDiIiIiIiCrDiBBJL7pxgOhzg9WkL62BWJYyyWQr6iY26OF0HtSQUAUCx3MBwOMTzdR9K9QU8keO/+Xgo/eV+H5X5uESHL/fxRCj/5QWViO+v9PP51ZtK5RL1DfFDM4xfvu4+Cjs9+kMK7jxbIzEKWKx+HJPZPhxgOh+iUiwCAypPp8oiIiIiIKNjKE8hlqj0SiSOgoVwtQ6QBK6CV8XB/Im0c+fwfRYIHaPjq98p43rtBRKHKPSvhJ+8DeKGIb1SG+Na/DPGtShXPvwDg0wP8JLC1bok2U4i/UMRXv9cR7/8vQ3zze/YRef8JPvduLytMuRHjkNx/iLJoGCciIiIiohBCJpBd1A5d4wNjMcTyosVuUg0l53nnNq+/YLeGw5KYcEfcsigdTiYAe6+XoRWr6AxPsb+Xmnjusnz5/yoj/moV3/yXU6R25OsgWk6zgd0mw5T7+f+oiETzz4/w5U37wc09fP3Py4gDsD6oXkIr5B6+/vdHSO2ME+3f2DnCN14FgCasnnvbsXlxCFPuesSBiIiIiOj2CJFAdlErpZA/kBkfGFL3ENlUHgeVyW6LlYM3MZFD7u3j9GhvskvpZdvZxysP9/Ab3sdnquFJRRf79HbAmE3pcmv47H0AL7yB552kCfa4wX98LLpyftqa2wX2akjEQdp1jgMRERER0fUkn0DWHiFfEd07qx0xlmw4HKJT9etIuocj+/nhsDqnq2kXh28eQAfs1kXndR1UyxnvxtJqJU8LqPfmN/lO9xD2EMgl28PrRQ2AhuJ384slwL2OSIr+U8pONu2xkxPjBoNbAFcrIKkbiRoHn3KXEYfK2zjkbKxERERERNIkE8guDt+uACiierqPPdc3f/kkIEC3isc6gGLV07qYxN7+EQKGIi6Vs1ZlLHWAilZE+R3PxDlLsHd0iuHwFEfu4C0gDtizj47HTj7/7Sq+8e2rG9z3+aM8PoOGr/75fmBLapQ4zCo3WhyS2H+njKKm4yCfQiwWQ9bTXZqIiIiIiKZJJpA2LY0XvY8t6pMWdADF15cwS6vL3tG4ldT35p1d9Zqx3s+PZh91xk5+/Q/2gKfL7l8s5/NHWfzkfeD5750i5dv6GM28cqPHYfY4UyIiIiIimiaZQH6C1rzv4xF1O03vQ5fOWWqkUy1D0ys48FkuYm1sphC3/4y/WsY3KkPX2MkurKcAkEHcJ9lajS4+fxTDT97X8fz3Ovj6jvf5qOaUu2Acao/yqOgaynZ37NPLaOomIiIiIrrmJBPIF5HWAOgtfOJ5xlk3MapkSoxzbHaW24UwyhjI5N4+vlsE0OxMPbc+XkT8BYiumn+0P559FAB6VXz2KYAX0qPkarW66HwnZbcQDvF118ypi5Epd5E4dNFpAih+91K6SBMRERER3RSSCWQSIs+r4G1nrFi3hsNsTEyss4i911EEoB+kkD2suRI3sWTITRmaNn/5CllJPP+KBkDHL/66hM+dSWJ6Nfz0rw9gAXj+v06PFcSoDjFkF6/EKMn7xaeaneR5n/c3Pw6y5UaPAxERERERRXPn6dOnv3Y/oKqq++5Y9xDZlJgt1U0rFoFKBZnqEEfOMMZaKWB9SEErdya7DAZur6HcOR23EgVuZ9PK6Cw4trFWiiHfnFHOWQnvfn9GHV4o45t/701caijF8qhgRh1DleskWd6NALxaxbce+o0nddXBG9cIfvWjLP71B96zwSViHMKVGyUOANDFYTaFg0wVw9FJS0RERERE80i2QAJI7uO0WobmTG6paShWOzh9mPZsGMHeETrVMoqjwiGWeii/s1CSsz6iLl8RJInU33fwjVcn4/X8t6v4ZmDStIcj3yVXLtM6xIGIiIiIiKKSb4G8JWqlGPKVIqrDI9y0FKRbK+HNfAU6bub+ybNbQotsgSQiIiIiCkO+BfJWqeDtifGY15szoVAqXxFLplRvc/LYRe3wbbsrLxERERERhcEE0mPvYRkaAP0gj1TAbK3XlaYVUe24xqreKl0cZmOIxVLIH+hiHCi7uRIRERERhcIE0iu5j3fcYz1vgL0je63D0yPsLT7w8PrTNJSrN2V8LRERERHR5eEYSCIiIiIiIpLCFkgiIiIiIiKSwgSSiIiIiIiIpDCBJCIiIiIiIikrTyC7h1nEYjFkSzXvU0RERERERHSNLJ5A1kqIxWLwzw+7qD7WAQB65Ql8N1lD3VoJ2axYO/EmLeNxuznLeMQQy2ZRqvGoEhERERGFtXgCOVMS+TfEehha8fXlLF7freGwJFo1xS2L0uESk4FaCal8BbrIe3396uwQP/1ODO/+nn37ThY//VENv/JuGFK4crv4/EclfOBs+3sxfPAoaNvV+9WPsqN6/PTM+2x088uNEAddRyWfCvjRg4iIiIiIgqw4gQSS+6diDcJlrF7fPUQ2lcdBxZ3d6agcpBBbUjZQe1IBABTLHQyHQwxP9zG5XGANv/j+AT771PXQpzo++0Ee//pokTqEK/fzRyn85AcVWK7HrPfz+NfvHM5Onlahd4if/GBGxh2VRLnycUhi/1Ssh9kpFwEAlSfTcSUiIiIiomArTyCXKplCRiuiXLWTu+EQnapIBrDMLrJaGQ9nrDIff7WMb1SG+Na/2LdKGXEAeP8JPvduHIJ0uWcl/OR9AC8Ux9tXqnj+BQCfHuAnP1pii+xcXXT++gAWivjqt0Vr83JIlBsxDsn9hygHFElERERERMFCJpBd1A5d4wNjMcTyosVuUg2lURdT+zavhVCqa+oejk6PsL83Tu6Se0cQOWQTHe/mK7GH1MN9fHnT9dDmPr76quu+j1opK/YpMAzy5X7+PyoANHz1z4/G22/u4et/LhJO64PqpbVC/upHb+IXnwLPf+8Iz3uf9DE/DoJMuesUByIiIiKi2yBEAtlFrZRC/mD2+MBIArumvompHHIN/eqshF+8D8S//RBf9j4JAKjhSUUX+/S2/KQ8/uXW8Nn7AF54A8+7k81eDZ1/fCy6cn7amujSuTJ2F9P4tzv4+o73ST+ScZAqd43iQERERER0S8gnkLVHyFdE985qR3QfnehCOmEPR/bzw2EVfluMdXH45gF0AFqxis7odR1Uyxnvxj5qeFIBoL2BvKvXaa3kaQH13vxmV+0eirLm6qLjmuzmX79fQfzbHbzyB0HdXvfwelEDoKH43bxnTKWbRLm9jkiK/lMKv2G/5vNHWbxbzOMX7zsJeBNWb/yS1bC7mL5QxjcC99tLJg6S5S4jDpW3ccjZWImIiIiIpEkmkF0cvl0BUET1dB+uHqQBSUAI3Soe6wCKVZwe7bnKS2Jv/wgzhiICAGqlPCrQUH7HO9mNPGetyljqABWtGKmsz36QwgcBY+4AYO/oFMPhKY7cwZMQVG4csGcfTeEn7+sANDz/7Sq+ETRecMlEF1MNX/3zfTuBkzMvDmHLjRaHJPbfKaOo6TjIpxCLxZC9Dk3dRERERERXTDKBtGlpvOh9bFGftKADKL4efpbWWimLfAUoVk+nEs29o3Erqe9tanbVMJJI/f14sptvfs8ec/eDVMBSE7Lky7Xez49mH42/WsU3/+UUX/+DPeDpsvsX+xh1MX0HKXf30UVFKDd6HFLeB4iIiIiIaA7JBPITtOZ9H4+o22l6H5LQRa0UQ76io1jtYNEVQpylRjrVMjS9ggOfZTNm+Y2dfbxiz5hqGctryfItdzMlZmZ1zdr6ysO9UTdO6ykAZBCXTMCi+JUuxhhaP0iN16z8vRj+1V5y47Pv2+sx+rSczhKq3AXjUHuUR0XXULa7Y596f4EgIiIiIqIpkgnki0hrAPQWPvE846ybGFUyJcY5NqWnUO3iMJuyWx6HgV0ho4yBTO7t47tFAM3O1HPr40XEX4DoqvlHnllbe1WxjuQL6VFydXMtEocuOk0Axe9OtVwTEREREVEwyQQyCZHnVfC2M1asW8NhNiYm1lnE3usoAtAPUsge1lyJm1gyZHJomkgeD3TNTh7dz12dX/Vq+OlfH8CChuc1/4xEdvkKN/9yk3j+FQ2Ajl/8dQmfO5PEjLYFnv+v/uMHRR1iyIaphI/f+IPT8VqVrts37XGHz39P3PebVGhWHMKVGz0OREREREQUzZ2nT5/+2v2Aqqruu2PdQ2RTYrZUN61YBCoVZNwJXa0UsD6koJU7k10GA7fXUO6Mxzd2D7NIHXhr4KKV0VlobKNoucw3Z5RzVsK73/erK6ZnTB2poRTLo4IZdQxVbhed76Twi09dDzlereJbD/0ya1cdPHFdll/9KIt//YGO5783DFh+QyIOPoLLjRIHjH+IyFQxXJdfIYiIiIiIrgHJFkgAyX2cVsvQnMktNQ3FagenD9OeDSPYO0KnWkZxVDjEUg/ld5ae5CyfNh6D55s8QnL5Cq9Z5SaR+vsOvvHqZLye/3YV3wxMmvZw5LvkymWKEodZosSBiIiIiIiikm+BvCXE5DxFVIdHuGkpSLdWwpv5CnTczP2TZ7eEFtkCSUREREQUhnwL5K1SwdsT4zGvN2dCoVS+IpZMqd7m5LGL2uHbdldeIiIiIiIKgwmkx97DMjQA+kEeqYDZWq8rTSui2lmfyYcuVxeH2RhisRTyB7oYB8purkREREREoTCB9Eru4x33WM8bYO/IXuvw9AgBq57cLpqGcvU6jK8lIiIiIlovHANJREREREREUtgCSWSLxcRYUSIiIiIi8scEkoiIiIiIiKQwgSQiIiIiIiIpK08gu4dZxGIxZEs171NERERERER0jSyeQNZKiMVi8M8Pu6g+1gEAeuUJfDdZQ91aCdmsGA93k5bxuHmcpTliiGWzKNV4pIiIiIiIVmnxBHKmJPJviPUwtOLrS1m8vls7RMlJGpzE4bC2vCSvVkIqX4Eu8l4fNfz092J41+/2nUP8yru5tLDldvH5j0r4wLXdB49qPttF86uzQ/z0O1lXPUr43LtRBHLlRtg3XUclnwr4IYOIiIiIiJZhxQkkkNw/FWsQLmX1+hoe5Q9QcSd3uo7KQR6pJWUOtScVAECx3MFwOMTwdB/ruFzg549S+MkPKrBcj1nv5/GvvslmGF10vhPDv37/AJ99GphFRyBfrvy+JbF/Kta47JSLAIDKk+WcB0RERERENG3lCeSypYtlVDsiaRgOhxh2ytAAYJldZLUyHs5ZZT7+7Q6+9S/Dydvf7+M3vBuGJFXuWQk/eR/AC0V8o2JvU6ni+RcAfHqAn/woenvs549S+MWnQPzVMr5RcdflCF/2bhyCdLkR9y25/xBl0dhNREREREQrEjKB7KJ26BofGIshlhctdpNqKDnPO7d5LYTdGg5LYsIdccuidOhNFvawf7SPPXdul9zHd0Xj01qrlbJin+aEQcbn/6MCQMNX//wIX960H9zcw9f/vIw4AOuDarRWyN4hfvE+gFereOXhPr68OTuJdszdtxDlrmzfiIiIiIhoYSESyC5qpRTyB7PGB0bUPUQ2lcfBZN9UVA7exFQO6dGtlfB2BdDKD5cyxnI1anhS0cU+vb3opDw1fPY+gBfewPNOggUAvRo6//hYdPv8tDXR/VPWr/THsKDhq38UJpLz902+3NXtGxERERERLU4+gaw9Qr4iune6u5B2qn7Nf3s4crqYDqvw22Ksi8M3D6AD0IpVdEav66Bazng3npx5MxZDKl9BptzBqafLaa3kaQH13vxmV+0ewh4COZf1g5RrkpssfvqjWZO87OH1ogZAQ/G7+ZljKueW2+uIBOo/pexurV18/iiLd4t5/OJ9JwFvwuq5XyTHeqoDyAC9Ej74jnsSnxI6Z1PRss3fN+lyl7FvlbdxyNlYiYiIiIhWQjKB7OLw7QqAIqqnk11I/RKGULpVPNYBFKs4PdpzlZfE3v4R5gxFBABUDlLIzmuqnMFZqzKWOkBFK6L8TsiJcz7V8dkP/CZ5Gds7OsVweIqjif63c8woNw7YM5Wm8JP3dQAanv92Fd/4dtSBgF1YTwGggl98vwLrU9dTn1bwi++n8NMz12Mus/ctfLnR9i2J/XfKKGo6DvIpxGKxhc4JIiIiIiKaJplA2rQ0XvQ+tqhPWtABFF+f173RMZ55U7SAikl09IPJJRz2jlwT7fjdIs+uuoeveya5+WaljOcxe5KX+cKVa72fH81UGn+1im/+yym+/gd7wNPF+xfHX63im84ENv/SGSVun/2PoEGOcmTLjb5vKe8DRERERES0RJIJ5CdozfvuHlG30/Q+FEpybx+n9kyszU605M1ZaqRTLUPTKzh4FC5R+o3NfXz9e7M76kbhW+5mCnH7TzGj6RCvPNwbdfkUrX0ZxN1jCMN4oYxvPNzDb4xen8SX/+AdfPUFAE87Uy2h0mTKXXDfao/yqOgaynYXa2+3ZiIiIiIiWoxkAvki0hoAvYVPPM846yZGlUyJcY5Rk78gUcZAJvfsGV2bnann5vmVsVgiHGS63BcRfwGiW+cf7Y9nKgWAXhWffQrghfQoEZOXRPw/Afj0MT6bNcYwtDDlLrJvXXSaAIrfler2TERERERE4UkmkEmIPK+Ct51xZd0aDrMxMbHOIvZeR9Hugpo9rLkSN7FkyLxhbN1uDaU3D6BDwxv5q8gcuvjVWQk/+YE9Vk/zr8PcpS6mBJWbxPOvaAB0/OKvS/jcScp6Nfz0rw9gAXj+v/qvRynqEEM2oBJf/r+KdrnuMZddfP7oTbGG4yv5GeUG75t8udH3jYiIiIiIVu/O06dPf+1+QFVV992x7iGyKTFbqptWLAKVCjLVIY6cYYy1UsD6kILmnTU1cHsN5c7puEUpcDufMiOqlWLIN8voBI2RPCvh3e/71UHD8987xdd3vI8DYl3MPCoQs9j6lh2q3C4630nhF+4JaRyvVvGth37jSV118MZ1ZEa5LxTxjb8/wpe9j8vsW6hyZ2wbuG8A0MVhNoWDTBXD0YkYTiwWAwAMh0PvU0REREREJN8CCSC5j9NqGZozEaamoVjt4PRh2rNhBHtH6FTLKI4KBwANxfI7PkmOmwatKJYVWUbyGI1mj9fzJnlu85e6mDar3CRSf9/BN16djNfz367im4EJ1h6OfJdccfMvN/5qFd/0TR4huW9hyvXfdva+ERERERHRZZBvgbwlaqUY8pUiqsMj3LR0pVsr4c18BTpu4v7ZLaFFtkASEREREa2KfAvkrVLB2xPjMa83Z0KhVL4ilkyp3rTksYva4dt291wiIiIiIloVJpAeew+ddSXzSAXM1npdaVoR1Y5rrOq118VhNoZYLIX8gZhsqMxurkREREREK8ME0iu5j3fcYz1vgL0je13E0yPs+Q9SvP40DeXqvDGzRERERES0CI6BJLJxDCQRERER0WxsgSSyDYeipZaIiIiIiPwxgSQiIiIiIiIpTCCJiIiIiIhIChNIIiIiIiIiknKDE8gaSjGx/uHoVqp5N7oRurUSsll7H6eWHXGWuoghls2iVLspi5IQEREREdFlu8EJZHjdwyyysRKuVZpZKyGVr0DXvU/40HVU8inc0DyaiIiIiIhW7AYnkHs4smfVHA6rKHqf9vFJS4dMHrZOak8qAIBiuSP29XQfk0shJrF/KuLQKYsoVJ4wgyQiIiIiovBucAJ5i2hlPNyfTBv9JPcfoqx5HyUiIiIiIpITIoEUYwqzh10xrq6UHY0tzJa84+4AoIvaYQnZ0RjELLKlms928NlWlOkdrtc9FO851QWzVhKvOfQvfSb7tbFYDPkKAFSQ94ydjFQuERERERHRDRMigbS1qijFUjiojDt76pUDpDxZXa2UQv6g4uoSqkOv5JGamuTFb1tRZv6RN1MkIiIiIiKiqxI6gdQrB6hAQ7lqj7nr2OMLK0/Gk8/USqI1r1hFZzQOsYNqUQP0A0zmhTU8qQAoll3bDtGpllFMu7dbkb2j0XtWiwBQRNVVj+FwiFOJ7qF+aiXPLLDem08yHUr3UMQurMrbOPQ27xIREREREc0ROoEUCdYp9vfspCq5h9c9M9SIiV2KqB7tuSZ0SWLv6LsoBk3iUnmMqiupSe7t42h/b2ITEpyuvLHUASpaEeV3vBPnBEli/50yipqOg3yK3XOJiIiIiCiU8Alk8XV407q9oyGGwyP78S46TfiOJYzF8qgAQLPjannbw1G1CA1OUpNF6XB6/ON1JOIy4zY1Y+plSHkfICIiIiIikhI+gVyFvSOcDjui26qmo3JwgHwqhuzUbDkEAMn901E3X02v4CDEWNHaozwquoZyZ7HuuUREREREdPusIIFMIpURS0u4xzTOb3lLim6rp0MMhx2UNUCvvA2ZHpa1J03vQwtooiPxnjJWPQYyubeP7xa9Lbqz2K3Dxe+CeSMREREREYW1ggQSeDEtJst5s1RDd15m0z1EqXSI2sSGSeTf0ADoaH3iejSVAQBUnjiJVxe1UhZ514ywi3gxLd7zcTVouREiIiIiIqLbayUJZHL/HbsFMY9UarrlzdsztVk5QD4lJnVxbqkDHUARr7sHXO69bs/4eoBULIZYLCWSR01zbWRzre84GntZyY8e85s8xklQ9YO8XX7wtjLWcwwkERERERFRNCtJIIEk9k/Fsh0+qd2k5D7eqRY9OaAGrVhFZzQxj2MPR50yiqNtNRTLVXROxeyuC9s7QmeqLkRERERERAQAd54+ffpr9wOqqrrv0pqrlWLIV4qoTiXbfmooxfKoFKsYHs3fmoiIiIiIyG1FLZB0uSp4+3DeuM0uaodvi668REREREREETCBvOb2HpahucdtTs3s2sVh1h4veqAD0FB+yNZHIiIiIiIKjwnkdZfcxzvVsty4TU1DufoOl/AgIiIiIqJIOAaSiIiIiIiIpLAFkoiIiIiIiKQwgSQiIiIiIiIpTCCJiIiIiIhIyq1IILuHWcRiMWRLNe9TN0gNpWwJy9rD2xGz+RgH4WrjsNxzm4iIiIiii5hAfob24d/hKPaH+CvX7Z/W8hteF9XHOgBArzxZ6pfQ9uGf4a9if4ij0j/jmffJS9XFYTaPig7MWQxyrFZCLBaDfz6wupitHcZBWOc4dAHoFeRjTCKJiIiIrlqkBLJd+hM8PjjFufeJtZRE/g2xxoVWfB3LWwHxx2gd/BIAcF75f9CWTdxWoFZK4UDXUO4cYW8pS3SsKmZd1EpZZH3Xq1xHK4hDt4bDkmjNE7csSofrHonlx6FbO0Qp68Qghlg2i9Jhzf+cSO7hqFOGhgry/hkuEREREV2S8Alk95/xQUX8+aD8p/jj4Q/xF/bt95fxzXIFkvunGA6HOD1aZgV/F+nyVwAAD4r/J7aWkrhFUCshXwG08nLXd1xqzLoicYzFUshXdIi2rOthuXE4RDaVx0HFHQEdlYMUYmueGC01DqjhUf5AtJg7dB2VgzxSQXFI7uOdsgZU8gGtpERERER0GcInkJ8YdsvjV5DJ/y7ue5+/Rbb2/zv+YvhDlI7+yxXFoYvDtyuAVsY7y8wel6z2SCSOgIZytYyid4PbIplCRiuiXO1gOBxiOByiU7WjcRVdQ69QulhGtSNiMBwOMeyUoWF2HJL730URQOXt69B6TURERHQzhU8gZXV/jNPSn02MkzzK/t10V8/a34nns/+MZ/gM7ZIYV7j42MIaSqNugvZtGU0XTn0nbn+Htnc7AO2SvR+Hn+FZzT1m9M/wT4efeTcPr/YIBzqgvZHH7PSxi9phCVl3l8G83Yw8IULMJLpk7r1ehlasojM8xf5eauK5y3W1cQD2cHR6hH1XP+Pk3hFEDtlEx7v5ylx9HPaP9ie7Wyf38d25vyzs4WFZA/QDPJpTDdHinWVrJREREdGSySWQ3X8eJz/5U/vBX+L9lCuJyrqSve4/4yj1N3i/8suJcZLn+ikep/7Mf7Id3cCHpT/B44oYVwgA55V/xD+Ufjyx2XV0fvAn+Ie8e8zoL9E8+BP/OIRQe1IBoOGN/Kz0sYtaKYX8QQX6svuOBnbJfBMTOcPePk6P9uYkuau2BnFYC+sZh26tBNGY/nDmGMtk/g1oACpPZl08NTyp6OK92VpJREREtFRyCWQon+H0zX+0k6Us3ujYYyQ7f4oMIJKnt/1aFk/RrACZ6t/iL4Y/xB/b4wtRafi27s23hyOne9ywurxuk3v/bTTmc1RHGdof2bFw4gA0nyySHHfRaQLQ3sDM/LH2CPkKAG2yy+Co6+SEMDHr4vDNA+iA3brovK6DatnZwzWytnGoQfwOMOc4LsvaxKGLQ1cLaCpfQabcwem8rtjJPN7QADQ7MxLDPbxe1ABoKH53Xus8EREREYUhl0Am/wtKzmQ51az94FfwqpMcDn+Ivzi1xwF2f4ym3QDxoPz748llkr+L33deq/vPWvqg/Lf4/b3nAQD3U6r9qIFnPtteL1m8cfpf7Fj8LtKzv4lL+gQtHUAmNeMLsj1GEkVUTye7DAa/RlK3isc6gGLV07qYxN7+0VIn9Fnc+sahVsqjAg3ld/YXr8tc6xsHAKgcpJCd11SJJFIZAHoLn3ifctk7OsVweIqj5UxLTEREREQ2uQQyjIlJdkQyOPKiigcAgF/ifOrbn2f7UUvff0f2un8H1NQrmmTHpqXxovexRX3Sgg6g+PqsDodrZs3iUCtlka8AxeqpVIK1NGsRhyT2T90toGISHf0gxXGLRERERGts+QkkrRG7lXIFup2m96E1tm5x6KJWiiFf0VGsdrCUlTGkrFscxpJ7+zi1Z2JtXt5sQkREREQU0vITyBmtjM+q/8+odfLB0ptAbpsXkZ47Fszexqe7n5iAJ7pkSoxrux5f9tcpDl0cZlN2y+PwkrtYrlMconLG/q6gFZWIiIiI5lp+Apn8XWQ08Wcz71q2o/tjfHhgz7Cq/Z/jsZEUkTMW7DGqgd/Z7W1QwdvO2LJuDYfZmJhIZRF7r6NodznMHtZcSaxYImLuUDYJYimGGLIL92lclziI5PFA1+zk0f1csJsXh2ndbg2lNw+gz5tV2BlrOXPsL5fxICIiIlqV5SeQeB7Z72btVshTPHaW+kj9DUQnt6/g1XfsCXdWqVZyrUWXRwUAKvnRY/Mn6/D37HC8TuU/OAkxTvHYbzmTFdt7vQhAx+PgDBJ7D8djy2KxGGKpvFg7slgUC7e7hYrZHo7smTv1gzxSo9elkD/wdGf0K1c/GL8m67fUgrMUA6BX3p6bgMyzDnHoHr6JAx0AdFTyznau2y2Jw2S54pZK5VHRAa38zszxoN3qY4mxllzGg4iIiGhVVpBAiglwSp0/RUZzL3PxFTwo/hHe6NyASXHWxd5DiHXVHyGwoSW5j9NqGZqTHWgaitUOTh+mPRtGsHeETrWM4qhwiKUT5iQBcsYJyVIwDsJaxkGDVhTLisxexqOL6mMd0Mp4OCt/5DIeRERERCtz5+nTp792P6CqzvIZdC3USojlK9Bk1tC7Zrq1Et7MV6CjiOrwaOYC8zcZ4yB0D7NIHeihuv8SERER0XIxgbwBxIyeGsqdS14OYkXE/ozv39aEgXFw6R4imzqAXqxieGuDQERERHT1VtOFlS7V3lEVReg4SJVQu0EDvjStiGrnFidNtlsfh24NpdQBdK2Mzq0NAhEREdF6YAvkjVFDKfsEr5/e3i6OdFPx3CYiIiJaF0wgiYiIiIiISAq7sBIREREREZEUJpBEREREREQkhQkkERERERERSWECSSSlhlK2hJr3YZfuYRaxWAzZ0qyt5pdDRERERLSumECujRpKsRhi7tvMROQGqJUQi8Ww/rvZxWE2j4oOIHCZlC6qj3UAgF55EpwgdgHoFeRjTCKJiIiI6PphAnmNdQ+zyDIRWXkcaqUUDnQN5c4R9pLeZx1J5N/QAABa8fXg5SaSezjqlKGhgvz6Z85ERERERBOYQK6NPRwNhxgOhxgOqyh6n/bxSUuHaPO63VYah1oJ+Qqgld/BfmDyKCT3TzEcDnE6b7H75D7eKWtAJX8NWl+JiIiIiMaYQBIF6uLw7QqglfHOvOwxpOT+d1EEUHn7MLhXLBERERHRmrnBCaQYU5g97IpEoCQmOBGTnPh9ae+idlhCdjQGMYtsqeazHXy2FWXWPBs7k6pMtTLZY/9E3UKyXxuLxZCvAEAFec/YyUjlhqyv2DaLwy7QdcciW4L/29sxy7rqKnZgWreGw1J2Mr7Z0mR8I8XBe9xmHWMAtUc40AHtjTyC08eoY1f38LCsAfoBHslsTkRERES0Bm5wAmlrVVGKpXBQGXdy1CsHSHm+5NdKKeQPKq6ukDr0Sh6p7HSyOb2tKDN/CzOBx2/GkHLHQq/gICUSy7HuOGZz+5p2cfhmHgeVyW6pul5BPrXYOMfp4xZ8jAGg9qQCQMMb+eD0cRHJ/BvQAFSeLLJXRERERESX58YnkHrlABVoKFc7Ynxhxx5f6J4p0x7nhmIVndE4xA6qRb8WohqeVAAUy65th+hUyyim3dutyN7R6D2rRQAoouqqx3A4xOmSu1sG06HrgDaKWwfVsgZAx+OqKyWrPRLx1cqodtwxCxjpmSmOj9foWABABaNcK2wcQh1jAOii0wSgvYHZ+WP4sasjyTze0AA0O74JLBERERHRurnxCaRILE6x70yfmdzD655v+aKlqYjq0Z6rq2ISe0f2ODW/FqLKY1RdfSqTe/s42p8zecoNpJU7OB3FLYk9e2yf/rhqJ0X2OEIUUT3dn5jF1D8vS2L/6Gh8vOzH9rwHLaTwx/gTtHQAmVRAPZchiVQGgN7CJ96niIiIiIjW0M1PIH2WVNg7GmI4PLIft1uafMbQxWJ5VOBtIdrDUbUIDToO8inEYlmUDqfHP94WmZQ3vXoRabGaxSQtjRe9jwXp1lDKjsesxmIzxktKCXuMiYiIiIjIz81PIFdh7winw47otqrpqBwcIJ+KISs1ecptY7fkyeoeIpvKozJ/sCQREREREV0yJpBON0JtckzjxO1036cbY1J0Wz0VY+nKGqBX3g6YgXRS7UnT+9ACmuhIvOciQtW3W8Xjia6fdoukTzdN0a3U89ijA+gAtLJ7rOIQw6DxkiOz4hDlGNv1XmnLpDPOMkTrLBERERHRFWICCeDFtJhI5c1SDd152UL3EKXSIWoTGyaRf0NMHtNyZUnJVAYAUHnizPLZRa2URd41I+wiXhSZGR5XZyxFMTJeyiSopTRafV3v3K2h9KZIAIuvOx2H7eQNFbztZNfdGg6zzvIb/jKpF0cJXbd2iNLbwRvLxCHUMQZc4xMfwz0f0FJNJdtEREREROuNCSSA5P47dgtiHqmUd4zc9LqIzcoB8qnUxDapAx1AEaO8CQD2XrdnfD1AKhZDLJYSyZjmM0jQta7haFxeJT96bHpNw3HCpx/k7fKDt0W3isd2Iqi7Z6B1C1NfWyXvikMqj4ouZjo9csVh72EZGgD9wN42lRfrKxaL8JYsksHJclP5A1FuAJk4hD3GAOyJezwzynpFOG6ObvWxJ9kmIiIiIlpvTCABMfPnqVjSwZvQTEnu451q0ZNTafZSFs7EPI49HHXKKI621VAsV9E5FTN/LmzvCJ2pugRI5vGGXRHNZ2IhYcH6avb27uwRIman1fK4npqGYrWD04fT654k90/RKbsTSzu2VZGE+pKKQ4hj7Nh7KJLOg0f+CfdCuqg+1gGtjIf+B4OIiIiIaO3cefr06a/dD6iq6r5L5Kt7mEXqQEexOpxobbxxaiXE8hWxXMkS19e8NfEjIiIiohuFLZBEs+wdoVoE9IM3pSZIktI9xJsH+lRXXyIiIiKidccEkmiOvaMqitBxkCotvt5nt4ZS6gC6Vp7u6ktEREREtOaYQBLNtYejYVWMDV20F2sSgFZEdWrZECIiIiKi9ccxkERERERERCSFLZBEREREREQkhQkkERERERERSWECSURERERERFLWKoF8dvhn+KvYH+Ko9GPvU1eghlK2tIIF5G8SxoiIiIiI6DZZowTyM7Qf/xIAcF5poO19+lJ1cZjNo6IDWHTZhitXQykWQ8x9Ky0p5esC0CvIx5hEEhERERHdBmuUQD6PrTe+AgB4UNzGlvfpiJ4d/hmOYn8XKiGtlVI40DWUO0fYu4VrLXQPs8jKJIXJPRx1ytBQQX5ZSSkREREREa2tNUoggfv7/x1/MfwhSke/630qsmetX+Lc++AstRLyFUArv4P9G5E87uFoOMRwOMRwWEXR+7SPT1o6dO+DQZL7eKesAZU8mEMSEREREd1sa5VAXr0uDt+uAFoZ79yM7PFSJPe/iyKAytuH17/HLxERERERBZJOIMUEN3+G0y7w7PDvcBT7Q/xV7A/xV9m/w+lU1vBj/FPsD3F0+BmAz3BaEpPjiAly/hnPfLZ1nv+r2B/irwIm0RnX4TO0Z9Wh9nejsh5XAOAUjz3vIermUXuEAx3Q3sgjOH0UYwqzh12RcJayo7GF2ZJfAtVF7bCE7GgMYhbZUs1nO/hsK8qseTbuHor3nGrxq5XEaw79S5/Jfm0sFkO+AgAV5D1jJ4PL3cPDsgboB3jkrRMREREREd0Y0gmko/nmH+IfDk7H3UL1U7yfEonllNaP8U+xP8H7FTE5DgCcV/4R/xCQIMr5JZpv/gkeT9Uh3DhHP7UnFQAa3sgHp48jrSpKsRQOKuPOnnrlAClPVlcrpZA/qLi6hOrQK3mkstPJ5vS2osz8NcjKkvk3oAGoPFn/uhIRERERUTQhE8hf4lwHHhT/FH88/CH+Yvi3eKP8FZHUVadb9M4r/4gmvoJXq3+Lvxj+EH/R+VNkAGBiltXfxe8PfyieH9rPzzFVhyIAnKLl5C57/80u74f2c1m8MXoPcSvtPz9RJtBFpwlAewMy+aNeOUAFGsrVjhhf2LHHF1aejCefscdTolhFZzQOsYNq0a+1roYnFQDFsmvbITrVMopp93Yrsnc0es9qEQCKqLrqMRwOcTqrW28yjzc0AM3OVGJMREREREQ3Q8gEEnhQ/luUjn4X9wExc+p+ARkA549/7OmaCjtx++/I7tnJWvJ3kZaZxWWe4p9O1uH1LADgvDOdxMr7BC0dQCY1o/uqWxHV4Sn2nWlak3t43bNvokWziOrRnqvMJPaO7DGDfq11lceouvqsJvf2cbS/N7HJekoilQGgt/CJ9ykiIiIiIroRwieQKW/LXQIPNM9DDp/lOLaOfoi/GP63qcfDyLy+vFlaIyu+Dm9at3c0xHB4ZD9ut2j6jCWMxfKowNtat4ejahEadBzkU4jFsigdTo9/JCIiIiIiuiqhE0haob0jnA47otuqpqNycIB8Kobs1Gw5REREREREl2/xBLL7YzR1AJnn7S6l68jAs7kteS8ivdQxfHaXTm1yTOPE7XTfp7tsUnRbPRXjJcsaoFfeRuAEqC61J03vQwtooiPxnmPOGNI0XvQ+RUREREREN0KEBNI1zrD7Y/zTm/+I83XpVurjftqZ5MdvjKabM4bvMaqhEqdgL6bFZDlvlmroziuze4hS6RC1iQ2TyL+hAdDRcg0sTKbEVEOVJ85Mrl3USlnkXTPCLuLFtHjPx9Wg5UZ8dKt4HGoMKRERERERXTehE8hm/k/G6ymm/ka0Phb/FL/vHRAoy7Vm41/F/gZi2ODfzF6vMYT7KRUAcH7wN/iHOetA7r1etBMn6bRppuT+O3YLYh6plHcc5PQ6js3KAfKp1MQ2qQMdQBGvu+O797o94+sBUrEYYrGUSB41n8GorvUdR2MvK/mZazs6Cap+kLfLD97W0a0+hg6gOFFRIiIiIiK6SUInkBO0ryBT/lP88dF6tj4CYkmPP65mgyf6cdt7KBK+g0fjpTgWksT+qVi2Y+7bJ/fxTrXoyQE1aMUqOqOJeRx7OOqUURxtq6FYrqJzKmZ3XdjeETpTdZmli+pjHdDKeMj8kYiIiIjoxrrz9OnTX7sfUFXRYuf17PDP8A8Hv0Sm+sPorY3XQa2EWL4CrdyZve4hjXQPs0gd6ChWhzi6yecGEREREdEtt1gL5E20d4RqEdAP3pSauObW6x7izQMdKFaZPBIRERER3XBMIH3sHVVRhI6DVInrMM7SraGUOoCuldFh9khEREREdOMxgfS1h6NhVYwxZC/WYEkAWhFV3+VIiIiIiIjoppEeA0lERERERES3G1sgiYiIiIiISAoTSCIiIiIiIpLCBJKIiIiIiIikMIEkIiIiIiIiKUwgiYiIiIiISAoTSCIiIiIiIpLCBJKIiIiIiIikMIEkIiIiIiIiKUwgiYiIiIiISAoTSCIiIiIiIpLCBJKIiIiIiIikMIEkIiIiIiIiKUwgiYiIiIiISAoTSCIiIiIiIpLCBJKIiIiIiIikMIEkIiIiIiIiKUwgiYiIiIiISAoTSCIiIiIiIpLCBJKIiIiIiIikMIEkIiIiIiIiKUwgiYiIiIiISAoTSCIiIiIiIpLCBJKIiIiIiIikMIEkIiIiIiIiKUwgiYiIiIiISAoTSCIiIiIiIpLCBJKIiIiIiIik/P8BegnYenxyf7sAAAAASUVORK5CYII=;" vertex="1" parent="1">
          <mxGeometry x="410" y="1140" width="912" height="405" as="geometry" />
        </mxCell>
      </root>
    </mxGraphModel>
  </diagram>
</mxfile>
